<?xml version="1.0" encoding="UTF-8" standalone="no"?>
<svg
   xmlns:dc="http://purl.org/dc/elements/1.1/"
   xmlns:cc="http://creativecommons.org/ns#"
   xmlns:rdf="http://www.w3.org/1999/02/22-rdf-syntax-ns#"
   xmlns:svg="http://www.w3.org/2000/svg"
   xmlns="http://www.w3.org/2000/svg"
   xmlns:sodipodi="http://sodipodi.sourceforge.net/DTD/sodipodi-0.dtd"
   xmlns:inkscape="http://www.inkscape.org/namespaces/inkscape"
   version="1.1"
   id="Layer_1"
   x="0px"
   y="0px"
   width="100"
   height="100"
   viewBox="0 0 791.99999 792"
   enable-background="new 0 0 612 792"
   xml:space="preserve"
   inkscape:version="0.48.4 r9939"
   sodipodi:docname="code.svg"><metadata
   id="metadata15"><rdf:RDF><cc:Work
       rdf:about=""><dc:format>image/svg+xml</dc:format><dc:type
         rdf:resource="http://purl.org/dc/dcmitype/StillImage" /></cc:Work></rdf:RDF></metadata><defs
   id="defs13" /><sodipodi:namedview
   pagecolor="#ffffff"
   bordercolor="#666666"
   borderopacity="1"
   objecttolerance="10"
   gridtolerance="10"
   guidetolerance="10"
   inkscape:pageopacity="0"
   inkscape:pageshadow="2"
   inkscape:window-width="1053"
   inkscape:window-height="687"
   id="namedview11"
   showgrid="false"
   inkscape:zoom="2.36"
   inkscape:cx="-42.507704"
   inkscape:cy="50"
   inkscape:window-x="574"
   inkscape:window-y="110"
   inkscape:window-maximized="0"
   inkscape:current-layer="Layer_1" />

<path
   d="m 269.40002,513.68516 c -4.57105,0 -9.13812,-1.65537 -12.6259,-4.96424 L 149.64063,407.02525 c -6.97358,-6.62152 -6.97358,-17.3523 0,-23.97192 L 256.77412,281.35766 c 6.97558,-6.61775 18.27817,-6.61775 25.25375,0 6.9736,6.61964 6.9736,17.3523 0,23.97193 l -94.5096,89.71063 94.5096,89.71063 c 6.9736,6.62152 6.9736,17.3523 0,23.97193 -3.48977,3.30701 -8.05684,4.96238 -12.62785,4.96238 z"
   id="path5"
   inkscape:connector-curvature="0"
   style="fill:#7ab51f;stroke:none;stroke-opacity:0.94117647000000004;fill-opacity:0.94117647" />
<path
   d="m 519.37814,513.68516 c -4.57104,0 -9.1381,-1.65537 -12.6259,-4.96424 -6.97358,-6.62154 -6.97358,-17.3523 0,-23.97195 l 94.50959,-89.70875 -94.51156,-89.71063 c -6.9736,-6.61963 -6.9736,-17.35229 0,-23.97193 6.97755,-6.61775 18.27815,-6.61775 25.25375,0 l 107.13347,101.69567 c 6.9736,6.6215 6.9736,17.35228 0,23.97192 L 532.00402,508.72092 c -3.4878,3.30887 -8.05487,4.96424 -12.62588,4.96424 z"
   id="path7"
   inkscape:connector-curvature="0"
   style="fill:#7ab51f;stroke:none;stroke-opacity:0.94117647000000004;fill-opacity:0.94117647" />
<path
   d="m 340.81439,530.63821 c -2.34899,0 -4.73372,-0.44068 -7.02518,-1.37291 -9.06469,-3.6874 -13.2647,-13.65169 -9.38014,-22.25438 L 431.54256,269.72104 c 3.88458,-8.60458 14.39359,-12.58765 23.44438,-8.90402 9.06467,3.68742 13.26669,13.65169 9.38211,22.25442 L 357.23556,520.36129 c -2.90251,6.42754 -9.49518,10.27692 -16.42117,10.27692 z"
   id="path9"
   inkscape:connector-curvature="0"
   style="fill:#7ab51f;stroke:none;stroke-opacity:0.94117647000000004;fill-opacity:0.94117647" />
</svg>