<?xml version="1.0" encoding="UTF-8" standalone="no"?>
<svg
   xmlns:dc="http://purl.org/dc/elements/1.1/"
   xmlns:cc="http://creativecommons.org/ns#"
   xmlns:rdf="http://www.w3.org/1999/02/22-rdf-syntax-ns#"
   xmlns:svg="http://www.w3.org/2000/svg"
   xmlns="http://www.w3.org/2000/svg"
   xmlns:sodipodi="http://sodipodi.sourceforge.net/DTD/sodipodi-0.dtd"
   xmlns:inkscape="http://www.inkscape.org/namespaces/inkscape"
   version="1.1"
   x="0px"
   y="0px"
   width="100px"
   height="100px"
   viewBox="0 0 100 100"
   enable-background="new 0 0 100 100"
   xml:space="preserve"
   id="svg2"
   inkscape:version="0.48.4 r9939"
   sodipodi:docname="compressed_2.svg"><metadata
   id="metadata48"><rdf:RDF><cc:Work
       rdf:about=""><dc:format>image/svg+xml</dc:format><dc:type
         rdf:resource="http://purl.org/dc/dcmitype/StillImage" /></cc:Work></rdf:RDF></metadata><defs
   id="defs46" /><sodipodi:namedview
   pagecolor="#ffffff"
   bordercolor="#666666"
   borderopacity="1"
   objecttolerance="10"
   gridtolerance="10"
   guidetolerance="10"
   inkscape:pageopacity="0"
   inkscape:pageshadow="2"
   inkscape:window-width="779"
   inkscape:window-height="480"
   id="namedview44"
   showgrid="false"
   inkscape:zoom="2.36"
   inkscape:cx="50"
   inkscape:cy="50"
   inkscape:window-x="813"
   inkscape:window-y="104"
   inkscape:window-maximized="0"
   inkscape:current-layer="svg2" />
<g
   id="Captions"
   display="none">
</g>
<g
   id="Your_Icon"
   transform="matrix(0.82101554,0,0,0.81903106,9.9316539,8.4129219)"
   style="fill:#7ab51f;fill-opacity:0.94117647">
	<path
   d="M 87.437,39.058 73.568,23.949 c 0,0 -2.486,-2.949 -7.797,-2.949 -0.963,0 -24.591,0 -24.591,0 -2.881,0 -6.18,2.304 -6.18,5.185 0,0 0,1.695 0,4.876 0,3.181 7.826,13.305 7.826,13.305 0,0 -7.826,13.349 -7.826,17.113 0,3.766 0,9.694 0,9.694 C 35,74.054 38.299,77 41.181,77 H 85.719 C 88.6,77 91,74.054 91,71.174 c 0,0 0,-0.508 0,-2.651 0,-2.145 -2.912,-9.392 -2.912,-9.392 0,0 2.912,-6.972 2.912,-8.505 0,-1.532 0,-0.386 0,-1.532 0,-6.983 -3.563,-10.036 -3.563,-10.036 z M 85.964,73 c -1.743,0 -45.031,0 -45.031,0 0,0 -1.933,0.218 -1.933,-1.527 0,-0.648 0,-6.55 0,-9.994 0,-3.443 7.826,-17.113 7.826,-17.113 0,0 -7.826,-9.688 -7.826,-13.305 0,-3.618 0,-4.018 0,-4.517 C 39,24.799 40.933,25 40.933,25 H 68.568 C 70.495,25 72,26.361 72,28.29 V 42 h 10.473 c 3.492,0 4.527,2.786 4.527,6.277 0,0.038 0,0.344 0,2.348 0,2.568 -3.913,8.506 -3.913,8.506 0,0 3.913,7.931 3.913,9.391 0,1.46 0,2.95 0,2.95 0,0 0.707,1.528 -1.036,1.528 z"
   id="path6"
   inkscape:connector-curvature="0"
   style="fill:#7ab51f;fill-opacity:0.94117647" />
	<polygon
   points="47.016,38.104 55.623,49.843 54.841,45.147 83.406,50.886 "
   id="polygon8"
   style="fill:#7ab51f;fill-opacity:0.94117647" />
	<polygon
   points="42.319,61.479 50.928,58.349 82.232,67.739 79.102,59.913 77.537,63.826 50.928,56.783 "
   id="polygon10"
   style="fill:#7ab51f;fill-opacity:0.94117647" />
	<path
   d="m 20.721,5.53 1.18,0.391 4.1,3.79 V 7.225 l 0.996,0.304 C 27.534,7.695 28,7.441 28,6.964 V 5.225 C 28,4.747 27.478,4.217 26.939,4.049 L 20.761,2.053 C 20.225,1.884 20,2.139 20,2.616 v 1.739 c 0,0.478 0.184,1.006 0.721,1.175 z"
   id="path12"
   inkscape:connector-curvature="0"
   style="fill:#7ab51f;fill-opacity:0.94117647" />
	<path
   d="M 28,25.954 C 28,25.476 27.478,24.948 26.939,24.78 L 20.761,22.781 C 20.225,22.614 20,22.868 20,23.345 v 1.739 c 0,0.479 0.184,1.009 0.721,1.177 l 1.18,0.39 4.1,3.789 v -2.484 l 0.996,0.303 C 27.534,28.426 28,28.172 28,27.693 v -1.739 z"
   id="path14"
   inkscape:connector-curvature="0"
   style="fill:#7ab51f;fill-opacity:0.94117647" />
	<path
   d="M 28,32.076 C 28,31.597 27.478,31.068 26.939,30.9 L 20.761,28.903 C 20.225,28.735 20,28.989 20,29.468 v 1.739 c 0,0.477 0.184,1.007 0.721,1.175 l 1.18,0.39 4.1,3.79 v -2.486 l 0.996,0.304 C 27.534,34.546 28,34.292 28,33.815 v -1.739 z"
   id="path16"
   inkscape:connector-curvature="0"
   style="fill:#7ab51f;fill-opacity:0.94117647" />
	<path
   d="M 28,38.198 C 28,37.72 27.478,37.19 26.939,37.022 L 20.761,35.026 C 20.225,34.856 20,35.111 20,35.59 v 1.738 c 0,0.478 0.184,1.007 0.721,1.176 l 1.18,0.391 4.1,3.789 v -2.486 l 0.996,0.303 C 27.534,40.668 28,40.415 28,39.937 v -1.739 z"
   id="path18"
   inkscape:connector-curvature="0"
   style="fill:#7ab51f;fill-opacity:0.94117647" />
	<path
   d="M 28,44.318 C 28,43.84 27.478,43.312 26.939,43.144 L 20.761,41.146 C 20.225,40.979 20,41.231 20,41.71 v 1.739 c 0,0.479 0.184,1.007 0.721,1.175 l 1.18,0.391 4.1,3.789 v -2.485 l 0.996,0.304 C 27.534,46.791 28,46.537 28,46.058 v -1.74 z"
   id="path20"
   inkscape:connector-curvature="0"
   style="fill:#7ab51f;fill-opacity:0.94117647" />
	<path
   d="m 28,50.44 c 0,-0.478 -0.522,-1.008 -1.061,-1.176 L 20.761,47.268 C 20.225,47.101 20,47.354 20,47.832 v 1.738 c 0,0.478 0.184,1.008 0.721,1.176 l 1.18,0.391 4.1,3.79 V 52.44 l 0.996,0.302 C 27.534,52.911 28,52.657 28,52.179 V 50.44 z"
   id="path22"
   inkscape:connector-curvature="0"
   style="fill:#7ab51f;fill-opacity:0.94117647" />
	<path
   d="m 28,56.562 c 0,-0.479 -0.522,-1.007 -1.061,-1.175 L 20.761,53.39 C 20.225,53.221 20,53.475 20,53.953 v 1.739 c 0,0.479 0.184,1.006 0.721,1.174 l 1.18,0.393 4.1,3.788 v -2.485 l 0.996,0.304 C 27.534,59.033 28,58.779 28,58.302 v -1.74 z"
   id="path24"
   inkscape:connector-curvature="0"
   style="fill:#7ab51f;fill-opacity:0.94117647" />
	<path
   d="m 28,62.684 c 0,-0.479 -0.522,-1.007 -1.061,-1.177 L 20.761,59.511 C 20.225,59.343 20,59.597 20,60.074 v 1.738 c 0,0.479 0.184,1.008 0.721,1.177 l 1.18,0.39 4.1,3.79 v -2.486 l 0.996,0.303 C 27.534,65.154 28,64.899 28,64.422 v -1.738 z"
   id="path26"
   inkscape:connector-curvature="0"
   style="fill:#7ab51f;fill-opacity:0.94117647" />
	<path
   d="M 26.939,67.63 20.761,65.632 C 20.225,65.464 20,65.719 20,66.195 v 1.74 c 0,0.478 0.184,1.008 0.721,1.175 l 1.18,0.391 L 26,73.29 v -2.486 l 0.996,0.304 C 27.534,71.275 28,71.021 28,70.544 v -1.739 c 0,-0.479 -0.522,-1.007 -1.061,-1.175 z"
   id="path28"
   inkscape:connector-curvature="0"
   style="fill:#7ab51f;fill-opacity:0.94117647" />
	<path
   d="m 25.137,90 h 1.791 C 27.502,90 28,89.183 28,88.609 V 87.565 C 28,86.992 27.502,87 26.928,87 h -6.26 C 20.094,87 20,86.992 20,87.565 v 1.044 C 20,89.183 20.094,90 20.668,90 h 1.704 c 0.024,0 0.63,1.347 1.382,1.347 0.753,0 1.358,-1.347 1.383,-1.347 z"
   id="path30"
   inkscape:connector-curvature="0"
   style="fill:#7ab51f;fill-opacity:0.94117647" />
	<path
   d="m 21.806,90.696 c -0.284,0 -0.546,0.091 -0.763,0.243 l -3.733,2.026 0.007,0.005 c -0.878,0.433 -1.486,1.328 -1.486,2.373 0,1.468 1.188,2.656 2.656,2.656 1.119,0 2.073,-0.695 2.464,-1.677 l 1.906,-3.495 c 0.171,-0.224 0.277,-0.501 0.277,-0.805 0,-0.731 -0.595,-1.326 -1.328,-1.326 z"
   id="path32"
   inkscape:connector-curvature="0"
   style="fill:#7ab51f;fill-opacity:0.94117647" />
	<path
   d="m 30.279,92.971 0.006,-0.005 -3.732,-2.026 c -0.217,-0.152 -0.479,-0.243 -0.763,-0.243 -0.733,0 -1.329,0.595 -1.329,1.327 0,0.304 0.107,0.581 0.278,0.805 l 1.907,3.495 c 0.39,0.981 1.343,1.676 2.463,1.676 1.467,0 2.656,-1.188 2.656,-2.656 10e-4,-1.045 -0.608,-1.941 -1.486,-2.373 z"
   id="path34"
   inkscape:connector-curvature="0"
   style="fill:#7ab51f;fill-opacity:0.94117647" />
	<path
   d="m 32,19 h 56.493 c 0,0 -0.577,-6 -9.87,-6 -9.293,0 -34.999,0 -34.999,0 0,2 -4.175,2 -4.175,2 H 32 v 4 z"
   id="path36"
   inkscape:connector-curvature="0"
   style="fill:#7ab51f;fill-opacity:0.94117647" />
	<path
   d="M 18,13.479 V 15 c 0,0 -3.343,0 -6.725,0 -3.381,0 -3.13,4 -3.13,4 H 18 v 0.739 C 18,20.313 18.007,21 18.58,21 h 3.414 L 26,24.319 v -2.486 l 0.996,0.304 C 27.534,22.304 28,22.05 28,21.573 V 21 h 1.016 C 29.589,21 30,20.313 30,19.739 v -1.052 -4.12 -1.089 C 30,12.905 29.589,12 29.016,12 H 27.815 C 27.763,12 27.36,11.291 26.858,11.135 L 20.721,9.248 C 20.184,9.079 20,9.442 20,9.921 V 11.66 C 20,11.929 19.635,12 19.854,12 H 18.58 C 18.007,12 18,12.905 18,13.479 z"
   id="path38"
   inkscape:connector-curvature="0"
   style="fill:#7ab51f;fill-opacity:0.94117647" />
	<path
   d="M 18,84.436 C 18,85.009 18.007,85 18.58,85 h 7.247 L 26,85.532 V 85 h 3.016 C 29.589,85 30,85.009 30,84.436 V 78.174 C 30,77.601 29.589,77 29.016,77 H 28 v -2.073 c 0,-0.479 -0.522,-1.008 -1.061,-1.176 L 20.761,71.754 C 20.225,71.585 20,71.839 20,72.318 v 1.739 c 0,0.477 0.184,1.006 0.721,1.174 L 21.844,75.556 23.376,77 H 18.58 C 18.007,77 18,77.601 18,78.174 V 79 H 8.146 c 0,0 -0.251,4 3.13,4 3.381,0 6.724,0 6.724,0 v 1.436 z"
   id="path40"
   inkscape:connector-curvature="0"
   style="fill:#7ab51f;fill-opacity:0.94117647" />
	<path
   d="m 32,83 h 7.449 c 0,0 4.175,0 4.175,2 0,0 25.706,0 34.999,0 9.293,0 9.87,-6 9.87,-6 H 32 v 4 z"
   id="path42"
   inkscape:connector-curvature="0"
   style="fill:#7ab51f;fill-opacity:0.94117647" />
</g>
</svg>