<?xml version="1.0" encoding="UTF-8" standalone="no"?>
<svg
   xmlns:dc="http://purl.org/dc/elements/1.1/"
   xmlns:cc="http://creativecommons.org/ns#"
   xmlns:rdf="http://www.w3.org/1999/02/22-rdf-syntax-ns#"
   xmlns:svg="http://www.w3.org/2000/svg"
   xmlns="http://www.w3.org/2000/svg"
   xmlns:sodipodi="http://sodipodi.sourceforge.net/DTD/sodipodi-0.dtd"
   xmlns:inkscape="http://www.inkscape.org/namespaces/inkscape"
   version="1.1"
   id="Layer_1"
   x="0px"
   y="0px"
   width="100px"
   height="100px"
   viewBox="0 0 100 100"
   enable-background="new 0 0 100 100"
   xml:space="preserve"
   inkscape:version="0.48.4 r9939"
   sodipodi:docname="music.svg"><metadata
   id="metadata9"><rdf:RDF><cc:Work
       rdf:about=""><dc:format>image/svg+xml</dc:format><dc:type
         rdf:resource="http://purl.org/dc/dcmitype/StillImage" /></cc:Work></rdf:RDF></metadata><defs
   id="defs7" /><sodipodi:namedview
   pagecolor="#ffffff"
   bordercolor="#666666"
   borderopacity="1"
   objecttolerance="10"
   gridtolerance="10"
   guidetolerance="10"
   inkscape:pageopacity="0"
   inkscape:pageshadow="2"
   inkscape:window-width="779"
   inkscape:window-height="480"
   id="namedview5"
   showgrid="false"
   inkscape:zoom="2.36"
   inkscape:cx="50"
   inkscape:cy="50"
   inkscape:window-x="2141"
   inkscape:window-y="154"
   inkscape:window-maximized="0"
   inkscape:current-layer="Layer_1" />
<path
   d="M 78.330491,16.994568 C 53.709575,16.281793 33.543076,24.188217 33.543076,24.188217 l -0.0147,40.123326 c -2.506849,-0.866335 -5.555341,-1.071721 -8.651605,-0.416532 -6.675376,1.412113 -11.046744,6.283166 -9.763555,10.88165 1.283189,4.598485 7.734411,7.182132 14.409052,5.77066 6.293947,-1.331494 10.537437,-5.738667 9.92671,-10.091456 l 0,0 V 40.476461 c 0,0 14.260596,-4.340631 32.758069,-5.428988 v 22.297562 l 0,0 c -2.479657,-0.826666 -5.470089,-1.014137 -8.509763,-0.371104 -6.675376,1.411473 -11.046744,6.282526 -9.763556,10.88165 1.282454,4.598484 7.733677,7.181493 14.409053,5.77002 5.828735,-1.23296 9.900252,-5.103953 9.985504,-9.126586 l 0.0022,0.0025 c 0,-0.0013 0,-39.363203 0,-47.507005 z"
   id="path3"
   inkscape:connector-curvature="0"
   style="fill:#7ab51f;fill-opacity:0.94117647" />
</svg>