<?xml version="1.0" encoding="UTF-8" standalone="no"?>
<svg
   xmlns:dc="http://purl.org/dc/elements/1.1/"
   xmlns:cc="http://creativecommons.org/ns#"
   xmlns:rdf="http://www.w3.org/1999/02/22-rdf-syntax-ns#"
   xmlns:svg="http://www.w3.org/2000/svg"
   xmlns="http://www.w3.org/2000/svg"
   xmlns:sodipodi="http://sodipodi.sourceforge.net/DTD/sodipodi-0.dtd"
   xmlns:inkscape="http://www.inkscape.org/namespaces/inkscape"
   version="1.1"
   id="Layer_1"
   x="0px"
   y="0px"
   width="100"
   height="100"
   viewBox="0 0 791.99999 792"
   enable-background="new 0 0 612 792"
   xml:space="preserve"
   inkscape:version="0.48.4 r9939"
   sodipodi:docname="pdf.svg"><metadata
   id="metadata11"><rdf:RDF><cc:Work
       rdf:about=""><dc:format>image/svg+xml</dc:format><dc:type
         rdf:resource="http://purl.org/dc/dcmitype/StillImage" /></cc:Work></rdf:RDF></metadata><defs
   id="defs9" /><sodipodi:namedview
   pagecolor="#ffffff"
   bordercolor="#666666"
   borderopacity="1"
   objecttolerance="10"
   gridtolerance="10"
   guidetolerance="10"
   inkscape:pageopacity="0"
   inkscape:pageshadow="2"
   inkscape:window-width="779"
   inkscape:window-height="480"
   id="namedview7"
   showgrid="false"
   inkscape:zoom="2.36"
   inkscape:cx="38.636364"
   inkscape:cy="50"
   inkscape:window-x="1986"
   inkscape:window-y="218"
   inkscape:window-maximized="0"
   inkscape:current-layer="Layer_1" />

<path
   d="m 224.60623,643.03663 c -0.002,0 -0.002,0 -0.003,0 -6.39021,0 -12.52961,-2.07251 -17.75687,-5.98917 -19.12766,-14.34105 -21.69577,-30.30131 -20.48129,-41.1687 3.33768,-29.88234 40.31154,-61.17611 109.92009,-93.05026 27.61874,-60.50301 53.90274,-135.06376 69.5742,-197.35769 -18.33061,-39.8826 -36.13729,-91.61477 -23.15418,-121.96587 4.54701,-10.63044 12.54507,-18.11347 23.12841,-21.64036 4.19486,-1.3977 8.29181,-2.10685 12.17575,-2.10685 9.26064,0 17.53526,4.04372 23.30191,11.38767 5.42308,6.90609 21.74387,27.69134 -2.81891,131.03377 24.75689,51.10716 59.83086,103.17073 93.44642,138.82245 24.08007,-4.35967 44.7967,-6.56611 61.67577,-6.56611 28.76107,0 46.1967,6.70519 53.29636,20.49849 5.88173,11.42201 3.46995,24.76201 -7.16837,39.64737 -10.22604,14.31014 -24.32743,21.87387 -40.78049,21.87387 -22.33823,0 -48.33536,-14.10752 -77.34894,-41.94997 -52.11452,10.87942 -112.96403,30.30989 -162.14454,51.80601 -15.35711,32.57128 -30.07003,58.80654 -43.76774,78.03955 -18.79098,26.39323 -35.02932,38.6858 -51.09415,38.6858 z m 48.88162,-94.09596 c -39.25852,22.0473 -55.25464,40.16249 -56.39526,50.36881 -0.18724,1.68617 -0.68368,6.12654 7.90873,12.71154 2.73645,-0.86712 18.72227,-8.15097 48.48653,-63.08035 z M 520.9794,467.75028 c 14.96201,11.50787 28.1942,17.80097 37.98564,17.80097 4.30136,0 9.96322,-1.0148 15.62164,-8.93225 2.73988,-3.83424 3.80664,-6.30168 4.22063,-7.61353 -2.25375,-1.20196 -8.8604,-3.66082 -25.18977,-3.66082 -9.27267,0 -20.29405,0.81905 -32.63814,2.40563 z M 386.75593,346.53649 c -13.14115,45.42534 -30.47887,94.45826 -49.11353,138.87224 38.38073,-14.89738 80.1146,-27.88366 119.31129,-37.09064 -24.7964,-28.7834 -49.56703,-64.72874 -70.19776,-101.7816 z m -9.36887,-155.80608 c -0.40711,0.0652 -0.98945,0.19575 -1.77448,0.45674 -1.7951,0.59926 -3.2432,1.58658 -4.47658,4.47128 -4.72394,11.04597 -0.99804,32.02868 6.23732,54.57737 5.99511,-38.85923 2.81032,-55.36036 0.0137,-59.50539 z"
   id="path5"
   inkscape:connector-curvature="0"
   style="fill:#7ab51f;fill-opacity:0.94117647" />
</svg>