<?xml version="1.0" encoding="UTF-8" standalone="no"?>
<svg
   xmlns:dc="http://purl.org/dc/elements/1.1/"
   xmlns:cc="http://creativecommons.org/ns#"
   xmlns:rdf="http://www.w3.org/1999/02/22-rdf-syntax-ns#"
   xmlns:svg="http://www.w3.org/2000/svg"
   xmlns="http://www.w3.org/2000/svg"
   xmlns:sodipodi="http://sodipodi.sourceforge.net/DTD/sodipodi-0.dtd"
   xmlns:inkscape="http://www.inkscape.org/namespaces/inkscape"
   version="1.1"
   x="0px"
   y="0px"
   width="100px"
   height="100px"
   viewBox="0 0 100 100"
   enable-background="new 0 0 100 100"
   xml:space="preserve"
   id="svg2"
   inkscape:version="0.48.4 r9939"
   sodipodi:docname="video.svg"><metadata
   id="metadata17"><rdf:RDF><cc:Work
       rdf:about=""><dc:format>image/svg+xml</dc:format><dc:type
         rdf:resource="http://purl.org/dc/dcmitype/StillImage" /></cc:Work></rdf:RDF></metadata><defs
   id="defs15" /><sodipodi:namedview
   pagecolor="#ffffff"
   bordercolor="#666666"
   borderopacity="1"
   objecttolerance="10"
   gridtolerance="10"
   guidetolerance="10"
   inkscape:pageopacity="0"
   inkscape:pageshadow="2"
   inkscape:window-width="779"
   inkscape:window-height="480"
   id="namedview13"
   showgrid="false"
   inkscape:zoom="2.36"
   inkscape:cx="50"
   inkscape:cy="50"
   inkscape:window-x="1075"
   inkscape:window-y="235"
   inkscape:window-maximized="0"
   inkscape:current-layer="svg2" />
<g
   id="Captions"
   style="fill:#7ab51f;fill-opacity:0.94117647">
</g>
<g
   id="Link"
   display="none">
	<path
   display="inline"
   fill-rule="evenodd"
   clip-rule="evenodd"
   d="M20.574,64.951h11.054c-0.673-1.912-1.123-3.93-1.318-6.023   h-8.533c-7.975,0-14.44-6.473-14.44-14.456c0-7.983,6.466-14.456,14.44-14.456h21.862c7.977,0,14.441,6.473,14.441,14.456   c0,6.489-4.268,11.978-10.146,13.806c0.824,1.5,2.18,3.689,3.862,5.385C59.568,60.76,65.1,53.266,65.1,44.472   c0-11.31-9.158-20.479-20.458-20.479H20.574c-11.299,0-20.458,9.17-20.458,20.479C0.116,55.785,9.275,64.951,20.574,64.951z"
   id="path6" />
	<path
   display="inline"
   fill-rule="evenodd"
   clip-rule="evenodd"
   d="M35.015,56.52c0,11.311,9.16,20.48,20.458,20.48h24.068   C90.841,77,100,67.83,100,56.52c0-11.312-9.159-20.48-20.458-20.48H68.471c0.677,1.913,1.13,3.931,1.33,6.023h8.738   c7.974,0,14.439,6.474,14.439,14.457c0,7.984-6.466,14.457-14.439,14.457H56.677c-7.976,0-14.442-6.473-14.442-14.457   c0-6.615,4.437-12.19,10.495-13.908c-0.447-2.259-1.676-4.238-3.4-5.632C41.034,39.592,35.015,47.352,35.015,56.52z"
   id="path8" />
</g>
<g
   id="Video"
   transform="matrix(0.60593221,0,0,0.55059065,21.18644,23.317925)"
   style="fill:#7ab51f;fill-opacity:0.94117647">
	<path
   d="M 88,17 H 12 C 5.373,17 0,22.373 0,29 v 42 c 0,6.627 5.373,12 12,12 h 76 c 6.627,0 12,-5.373 12,-12 V 29 C 100,22.373 94.627,17 88,17 z M 42,62.802 V 35.913 L 65.287,49.358 42,62.802 z"
   id="path11"
   inkscape:connector-curvature="0"
   style="fill:#7ab51f;fill-opacity:0.94117647" />
</g>
</svg>