<?xml version="1.0" encoding="UTF-8" standalone="no"?>
<svg
   xmlns:dc="http://purl.org/dc/elements/1.1/"
   xmlns:cc="http://creativecommons.org/ns#"
   xmlns:rdf="http://www.w3.org/1999/02/22-rdf-syntax-ns#"
   xmlns:svg="http://www.w3.org/2000/svg"
   xmlns="http://www.w3.org/2000/svg"
   xmlns:sodipodi="http://sodipodi.sourceforge.net/DTD/sodipodi-0.dtd"
   xmlns:inkscape="http://www.inkscape.org/namespaces/inkscape"
   version="1.1"
   id="Layer_1"
   x="0px"
   y="0px"
   width="100"
   height="100"
   viewBox="0 0 791.99999 792"
   enable-background="new 0 0 612 792"
   xml:space="preserve"
   inkscape:version="0.48.4 r9939"
   sodipodi:docname="visio.svg"><metadata
   id="metadata11"><rdf:RDF><cc:Work
       rdf:about=""><dc:format>image/svg+xml</dc:format><dc:type
         rdf:resource="http://purl.org/dc/dcmitype/StillImage" /></cc:Work></rdf:RDF></metadata><defs
   id="defs9" /><sodipodi:namedview
   pagecolor="#ffffff"
   bordercolor="#666666"
   borderopacity="1"
   objecttolerance="10"
   gridtolerance="10"
   guidetolerance="10"
   inkscape:pageopacity="0"
   inkscape:pageshadow="2"
   inkscape:window-width="779"
   inkscape:window-height="480"
   id="namedview7"
   showgrid="false"
   inkscape:zoom="2.36"
   inkscape:cx="38.636364"
   inkscape:cy="50"
   inkscape:window-x="850"
   inkscape:window-y="231"
   inkscape:window-maximized="0"
   inkscape:current-layer="Layer_1" />

<path
   d="m 611.6757,446.4559 c -4.46736,0 -8.68164,1.02092 -12.45842,2.79544 l -92.04733,-90.34255 c 5.1987,-7.68116 7.99536,-16.69057 7.99536,-26.1231 0,-26.11468 -21.64836,-47.36258 -48.2552,-47.36258 -9.82261,0 -18.96322,2.9028 -26.59183,7.8685 L 348.24951,202.9238 c 1.80796,-3.70691 2.84813,-7.84324 2.84813,-12.22797 0,-15.6949 -12.96242,-28.41755 -28.95311,-28.41755 -15.99071,0 -28.95313,12.72265 -28.95313,28.41755 0,15.69491 12.96242,28.41756 28.95313,28.41756 4.46735,0 8.67949,-1.02093 12.4584,-2.79545 l 66.18469,64.96252 c -24.85464,-9.72722 -51.4765,-14.80239 -78.64309,-14.80239 -39.87596,0 -78.51872,10.87235 -112.14509,31.44455 -8.59586,-7.75483 -20.05486,-12.49951 -32.62051,-12.49951 -26.60685,0 -48.2552,21.2479 -48.2552,47.36258 0,26.11468 21.64835,47.36258 48.2552,47.36258 26.60684,0 48.2552,-21.2479 48.2552,-47.36258 0,-6.94651 -1.54417,-13.54359 -4.29365,-19.49233 30.28926,-18.24618 65.00298,-27.87025 100.80405,-27.87025 35.77532,0 70.51263,9.64302 100.79759,27.88288 -2.74519,5.94664 -4.28721,12.5374 -4.28721,19.4797 0,26.11468 21.64835,47.36258 48.2552,47.36258 6.96805,0 13.68946,-1.48402 19.85541,-4.22052 18.59218,29.72896 28.39979,63.80266 28.39979,98.94569 0,27.05351 -5.6362,53.01242 -16.75421,77.31678 -3.89473,-1.00408 -7.98463,-1.53664 -12.19891,-1.53664 -26.60685,0 -48.2552,21.2479 -48.2552,47.36258 0,26.11468 21.64835,47.36258 48.2552,47.36258 26.60685,0 48.2552,-21.2479 48.2552,-47.36258 0,-15.21707 -7.35839,-28.77119 -18.75519,-37.4417 12.28685,-26.76513 18.75519,-56.16361 18.75519,-85.70102 0,-26.68303 -5.16868,-52.80191 -15.08137,-77.18627 l 66.18469,64.9583 c -1.80796,3.70692 -2.84812,7.84325 -2.84812,12.22797 0,15.69491 12.96241,28.41755 28.95311,28.41755 15.9907,0 28.95312,-12.72264 28.95312,-28.41755 0,-15.69491 -12.96242,-28.41754 -28.95312,-28.41754 z M 177.37893,361.20325 c -15.96497,0 -28.95312,-12.74791 -28.95312,-28.41756 0,-15.66964 12.98815,-28.41755 28.95312,-28.41755 15.96496,0 28.95311,12.74791 28.95311,28.41755 0,15.66965 -12.98815,28.41756 -28.95311,28.41756 z m 308.83326,265.23046 c -15.96496,0 -28.95312,-12.74791 -28.95312,-28.41755 0,-15.66965 12.98816,-28.41756 28.95312,-28.41756 15.96496,0 28.95312,12.74791 28.95312,28.41756 0,15.66964 -12.98816,28.41755 -28.95312,28.41755 z m -48.2552,-293.64802 c 0,-15.66964 12.98815,-28.41755 28.95312,-28.41755 15.96496,0 28.95312,12.74791 28.95312,28.41755 0,7.59064 -3.01112,14.72871 -8.4779,20.09436 -5.47107,5.36777 -12.73723,8.3232 -20.47522,8.3232 -15.96497,0 -28.95312,-12.74791 -28.95312,-28.41756 z"
   id="path5"
   inkscape:connector-curvature="0"
   style="fill:#7ab51f;fill-opacity:0.94117647" />
</svg>