<?xml version="1.0" encoding="UTF-8" standalone="no"?>
<svg
   xmlns:dc="http://purl.org/dc/elements/1.1/"
   xmlns:cc="http://creativecommons.org/ns#"
   xmlns:rdf="http://www.w3.org/1999/02/22-rdf-syntax-ns#"
   xmlns:svg="http://www.w3.org/2000/svg"
   xmlns="http://www.w3.org/2000/svg"
   xmlns:sodipodi="http://sodipodi.sourceforge.net/DTD/sodipodi-0.dtd"
   xmlns:inkscape="http://www.inkscape.org/namespaces/inkscape"
   version="1.1"
   id="Layer_1"
   x="0px"
   y="0px"
   width="100"
   height="100"
   viewBox="0 0 791.99999 792"
   enable-background="new 0 0 612 792"
   xml:space="preserve"
   inkscape:version="0.48.4 r9939"
   sodipodi:docname="zip.svg"><metadata
   id="metadata13"><rdf:RDF><cc:Work
       rdf:about=""><dc:format>image/svg+xml</dc:format><dc:type
         rdf:resource="http://purl.org/dc/dcmitype/StillImage" /></cc:Work></rdf:RDF></metadata><defs
   id="defs11" /><sodipodi:namedview
   pagecolor="#ffffff"
   bordercolor="#666666"
   borderopacity="1"
   objecttolerance="10"
   gridtolerance="10"
   guidetolerance="10"
   inkscape:pageopacity="0"
   inkscape:pageshadow="2"
   inkscape:window-width="779"
   inkscape:window-height="480"
   id="namedview9"
   showgrid="false"
   inkscape:zoom="1.668772"
   inkscape:cx="27.712659"
   inkscape:cy="56.504932"
   inkscape:window-x="716"
   inkscape:window-y="206"
   inkscape:window-maximized="0"
   inkscape:current-layer="Layer_1" />
<path
   d="m 424.26419,387.23275 h -7.24504 v 37.9682 h -43.47026 v -37.9682 h -7.24505 c -7.96955,0 -14.49008,5.69523 -14.49008,12.65607 v 120.23262 c 0,10.46763 9.75062,18.9841 21.73513,18.9841 h 43.47026 c 11.98572,0 21.73514,-8.51647 21.73514,-18.9841 V 399.88882 c 0,-6.96084 -6.52054,-12.65607 -14.4901,-12.65607 z m -7.24504,132.88869 h -43.47026 v -37.96819 h 43.47026 v 37.96819 z"
   id="path3"
   inkscape:connector-curvature="0"
   style="fill:#7ab51d;fill-opacity:1" />
<rect
   x="384.41644"
   y="339.77249"
   width="21.735132"
   height="75.936394"
   id="rect5"
   style="fill:#7ab51d;fill-opacity:1" />
<path
   d="M 475.85858,140.43946 H 177.93269 V 640.28838 H 612.63535 V 261.41999 L 475.85858,140.43946 z m 6.36598,32.81914 93.30651,82.53062 H 482.22456 V 173.2586 z M 373.54889,275.01417 h 21.73513 v -19.22495 h -21.73513 v -19.22497 h 21.73513 V 217.3393 h -21.73513 v -19.22496 h 21.73513 v -19.22496 h -21.73513 v -19.22496 h 21.73513 v 19.22496 h 21.73513 v 19.22496 h -21.73513 v 19.22496 h 21.73513 v 19.22495 h -21.73513 v 19.22497 h 21.73513 v 19.22495 h -21.73513 v 19.22496 h 21.73513 v 19.22496 h -21.73513 v -19.22496 h -21.73513 v -19.22496 z m 217.35133,346.04925 h -391.2324 v -461.399 h 163.0135 v 154.22369 c -6.22832,1.4344 -10.86756,6.45104 -10.86756,12.39262 v 32.0416 c 0,7.04915 6.52053,12.81664 14.49008,12.81664 h 7.24505 v -38.44992 h 43.47026 v 38.44992 h 7.24504 c 7.96956,0 14.4901,-5.76749 14.4901,-12.81664 v -32.0416 c 0,-5.94051 -4.63924,-10.95822 -10.86757,-12.39262 V 159.66442 h 32.6027 v 115.34975 h 130.4108 v 346.04925 z"
   id="path7"
   inkscape:connector-curvature="0"
   style="fill:#7ab51d;fill-opacity:1" />
</svg>