<svg xmlns="http://www.w3.org/2000/svg" xmlns:xlink="http://www.w3.org/1999/xlink" version="1.1" baseProfile="full" width="100" height="100" viewBox="0 0 100.00 100.00" enable-background="new 0 0 100.00 100.00" xml:space="preserve">
	<path fill="#000000" fill-opacity="1" stroke-width="0.2" stroke-linejoin="round" d="M 37.0371,-3.05176e-005L 66.6666,6.86646e-005L 81.4815,-7.62939e-006C 83.527,-7.62939e-006 85.1852,1.6582 85.1852,3.7037L 85.1852,7.4074C 85.1852,9.4529 83.527,11.1111 81.4815,11.1111L 66.6666,11.1112C 64.6211,11.1112 62.9629,9.45297 62.9629,7.40748C 62.934,7.40749 55.5411,7.41462 48.1482,11.1111L 40.7408,14.8148L 37.037,14.8148L 37.0371,62.9629L 40.7408,62.9629C 51.8288,70.355 62.9169,70.3704 62.963,70.3704C 62.963,68.3249 64.6211,66.6667 66.6666,66.6667L 81.4815,66.6667C 83.527,66.6667 85.1852,68.3249 85.1852,70.3704L 85.1852,74.0741C 85.1852,76.1196 83.527,77.7778 81.4815,77.7778L 62.963,77.7778L 48.1482,77.7778C 48.1482,77.7778 43.0237,77.7778 37.0371,77.245L 37.0371,81.4815L 35.1852,81.4815L 35.1852,85.1852L 60.2503,85.1852C 61.531,82.9711 63.9249,81.4815 66.6667,81.4815C 70.7577,81.4815 74.0741,84.7979 74.0741,88.8889C 74.0741,92.9799 70.7577,96.2963 66.6667,96.2963C 63.9249,96.2963 61.531,94.8067 60.2503,92.5926L 40.7407,92.5926L 40.7407,96.2963C 40.7407,98.3418 39.0825,100 37.037,100L 22.2222,100C 20.1767,100 18.5185,98.3418 18.5185,96.2963L 18.5185,92.5926L 13.8238,92.5926C 12.5431,94.8067 10.1492,96.2963 7.40742,96.2963C 3.31642,96.2963 1.08672e-005,92.9799 1.08672e-005,88.8889C 1.08672e-005,84.7979 3.31642,81.4815 7.40742,81.4815C 10.1492,81.4815 12.5431,82.9711 13.8238,85.1852L 24.0741,85.1852L 24.0741,81.4815L 22.2222,81.4815L 22.2222,74.2769C 19.9665,73.2834 18.5185,72.0079 18.5185,70.3704L 18.5185,62.9629L 22.2222,62.9629L 22.2222,14.8148L 18.5185,14.8148L 18.5185,3.70367C 18.5185,-3.05176e-005 37.0371,-3.05176e-005 37.0371,-3.05176e-005 Z "/>
	<path fill="#000000" fill-opacity="1" stroke-width="0.2" stroke-linejoin="round" d="M 59.2593,14.8148L 84.2593,14.8148L 100,30.5555L 100,62.963L 59.2593,62.963L 59.2593,14.8148 Z M 66.6667,22.2222L 66.6667,55.5556L 92.5926,55.5556L 92.5926,40.7407L 74.0741,40.7407L 74.0741,22.2222L 66.6667,22.2222 Z M 81.4815,22.2222L 81.4815,33.3333L 92.5926,33.3333L 81.4815,22.2222 Z "/>
</svg>