<svg xmlns="http://www.w3.org/2000/svg" xmlns:xlink="http://www.w3.org/1999/xlink" version="1.1" x="0px" y="0px" width="100px" height="100px" viewBox="0 0 100 100" enable-background="new 0 0 100 100" xml:space="preserve">
<g id="Captions" display="none">
</g>
<g id="Your_Icon">
	<path d="M87.437,39.058L73.568,23.949c0,0-2.486-2.949-7.797-2.949c-0.963,0-24.591,0-24.591,0C38.299,21,35,23.304,35,26.185   c0,0,0,1.695,0,4.876s7.826,13.305,7.826,13.305S35,57.715,35,61.479c0,3.766,0,9.694,0,9.694C35,74.054,38.299,77,41.181,77   h44.538C88.6,77,91,74.054,91,71.174c0,0,0-0.508,0-2.651c0-2.145-2.912-9.392-2.912-9.392S91,52.159,91,50.626   c0-1.532,0-0.386,0-1.532C91,42.111,87.437,39.058,87.437,39.058z M85.964,73c-1.743,0-45.031,0-45.031,0S39,73.218,39,71.473   c0-0.648,0-6.55,0-9.994c0-3.443,7.826-17.113,7.826-17.113S39,34.678,39,31.061c0-3.618,0-4.018,0-4.517   C39,24.799,40.933,25,40.933,25h27.635C70.495,25,72,26.361,72,28.29V42h10.473C85.965,42,87,44.786,87,48.277   c0,0.038,0,0.344,0,2.348c0,2.568-3.913,8.506-3.913,8.506S87,67.062,87,68.522s0,2.95,0,2.95S87.707,73,85.964,73z"/>
	<polygon points="54.841,45.147 83.406,50.886 47.016,38.104 55.623,49.843  "/>
	<polygon points="77.537,63.826 50.928,56.783 42.319,61.479 50.928,58.349 82.232,67.739 79.102,59.913  "/>
	<path d="M20.721,5.53l1.18,0.391l4.1,3.79V7.225l0.996,0.304C27.534,7.695,28,7.441,28,6.964V5.225   c0-0.478-0.522-1.008-1.061-1.176l-6.178-1.996C20.225,1.884,20,2.139,20,2.616v1.739C20,4.833,20.184,5.361,20.721,5.53z"/>
	<path d="M28,25.954c0-0.478-0.522-1.006-1.061-1.174l-6.178-1.999C20.225,22.614,20,22.868,20,23.345v1.739   c0,0.479,0.184,1.009,0.721,1.177l1.18,0.39l4.1,3.789v-2.484l0.996,0.303C27.534,28.426,28,28.172,28,27.693V25.954z"/>
	<path d="M28,32.076c0-0.479-0.522-1.008-1.061-1.176l-6.178-1.997C20.225,28.735,20,28.989,20,29.468v1.739   c0,0.477,0.184,1.007,0.721,1.175l1.18,0.39l4.1,3.79v-2.486l0.996,0.304C27.534,34.546,28,34.292,28,33.815V32.076z"/>
	<path d="M28,38.198c0-0.478-0.522-1.008-1.061-1.176l-6.178-1.996C20.225,34.856,20,35.111,20,35.59v1.738   c0,0.478,0.184,1.007,0.721,1.176l1.18,0.391l4.1,3.789v-2.486l0.996,0.303C27.534,40.668,28,40.415,28,39.937V38.198z"/>
	<path d="M28,44.318c0-0.478-0.522-1.006-1.061-1.174l-6.178-1.998C20.225,40.979,20,41.231,20,41.71v1.739   c0,0.479,0.184,1.007,0.721,1.175l1.18,0.391l4.1,3.789v-2.485l0.996,0.304C27.534,46.791,28,46.537,28,46.058V44.318z"/>
	<path d="M28,50.44c0-0.478-0.522-1.008-1.061-1.176l-6.178-1.996C20.225,47.101,20,47.354,20,47.832v1.738   c0,0.478,0.184,1.008,0.721,1.176l1.18,0.391l4.1,3.79V52.44l0.996,0.302C27.534,52.911,28,52.657,28,52.179V50.44z"/>
	<path d="M28,56.562c0-0.479-0.522-1.007-1.061-1.175l-6.178-1.997C20.225,53.221,20,53.475,20,53.953v1.739   c0,0.479,0.184,1.006,0.721,1.174l1.18,0.393l4.1,3.788v-2.485l0.996,0.304C27.534,59.033,28,58.779,28,58.302V56.562z"/>
	<path d="M28,62.684c0-0.479-0.522-1.007-1.061-1.177l-6.178-1.996C20.225,59.343,20,59.597,20,60.074v1.738   c0,0.479,0.184,1.008,0.721,1.177l1.18,0.39l4.1,3.79v-2.486l0.996,0.303C27.534,65.154,28,64.899,28,64.422V62.684z"/>
	<path d="M26.939,67.63l-6.178-1.998C20.225,65.464,20,65.719,20,66.195v1.74c0,0.478,0.184,1.008,0.721,1.175l1.18,0.391L26,73.29   v-2.486l0.996,0.304C27.534,71.275,28,71.021,28,70.544v-1.739C28,68.326,27.478,67.798,26.939,67.63z"/>
	<path d="M25.137,90h1.791C27.502,90,28,89.183,28,88.609v-1.044C28,86.992,27.502,87,26.928,87h-6.26   C20.094,87,20,86.992,20,87.565v1.044C20,89.183,20.094,90,20.668,90h1.704c0.024,0,0.63,1.347,1.382,1.347   C24.507,91.347,25.112,90,25.137,90z"/>
	<path d="M21.806,90.696c-0.284,0-0.546,0.091-0.763,0.243l-3.733,2.026l0.007,0.005c-0.878,0.433-1.486,1.328-1.486,2.373   c0,1.468,1.188,2.656,2.656,2.656c1.119,0,2.073-0.695,2.464-1.677l1.906-3.495c0.171-0.224,0.277-0.501,0.277-0.805   C23.134,91.291,22.539,90.696,21.806,90.696z"/>
	<path d="M30.279,92.971l0.006-0.005l-3.732-2.026c-0.217-0.152-0.479-0.243-0.763-0.243c-0.733,0-1.329,0.595-1.329,1.327   c0,0.304,0.107,0.581,0.278,0.805l1.907,3.495C27.036,97.305,27.989,98,29.109,98c1.467,0,2.656-1.188,2.656-2.656   C31.766,94.299,31.157,93.403,30.279,92.971z"/>
	<path d="M32,19h56.493c0,0-0.577-6-9.87-6s-34.999,0-34.999,0c0,2-4.175,2-4.175,2H32V19z"/>
	<path d="M18,13.479V15c0,0-3.343,0-6.725,0c-3.381,0-3.13,4-3.13,4H18v0.739C18,20.313,18.007,21,18.58,21h3.414L26,24.319v-2.486   l0.996,0.304C27.534,22.304,28,22.05,28,21.573V21h1.016C29.589,21,30,20.313,30,19.739v-1.052v-4.12v-1.089   C30,12.905,29.589,12,29.016,12h-1.201c-0.052,0-0.455-0.709-0.957-0.865l-6.137-1.887C20.184,9.079,20,9.442,20,9.921v1.739   c0,0.269-0.365,0.34-0.146,0.34H18.58C18.007,12,18,12.905,18,13.479z"/>
	<path d="M18,84.436C18,85.009,18.007,85,18.58,85h7.247L26,85.532V85h3.016C29.589,85,30,85.009,30,84.436v-6.262   C30,77.601,29.589,77,29.016,77H28v-2.073c0-0.479-0.522-1.008-1.061-1.176l-6.178-1.997C20.225,71.585,20,71.839,20,72.318v1.739   c0,0.477,0.184,1.006,0.721,1.174l1.123,0.325L23.376,77H18.58C18.007,77,18,77.601,18,78.174V79H8.146c0,0-0.251,4,3.13,4   C14.657,83,18,83,18,83V84.436z"/>
	<path d="M32,83h7.449c0,0,4.175,0,4.175,2c0,0,25.706,0,34.999,0s9.87-6,9.87-6H32V83z"/>
</g>
</svg>