<?xml version="1.0" encoding="utf-8"?>
<!-- Generator: Adobe Illustrator 16.0.0, SVG Export Plug-In . SVG Version: 6.00 Build 0)  -->
<!DOCTYPE svg PUBLIC "-//W3C//DTD SVG 1.1//EN" "http://www.w3.org/Graphics/SVG/1.1/DTD/svg11.dtd">
<svg version="1.1" id="Layer_1" xmlns="http://www.w3.org/2000/svg" xmlns:xlink="http://www.w3.org/1999/xlink" x="0px" y="0px"
	 width="2560px" height="1440px" viewBox="0 0 2560 1440" enable-background="new 0 0 2560 1440" xml:space="preserve">
<rect x="2509.755" y="565.255" transform="matrix(8.823433e-04 -1 1 8.823433e-04 1948.4832 3124.7107)" fill="#006E89" width="56.442" height="43.998"/>
<polygon fill="#DFDB00" points="2519.562,497.342 2519.399,683.645 2418.381,683.553 2418.545,497.255 "/>
<rect x="2236.901" y="547.809" transform="matrix(8.931914e-04 -1 1 8.931914e-04 1789.7771 2973.2954)" fill="#7AB51D" width="291.928" height="86.301"/>
<rect x="2156.19" y="571.429" transform="matrix(8.936682e-04 -1 1 8.936682e-04 1724.0515 2912.4509)" fill="#009DD1" width="326.727" height="44"/>
<rect x="67.341" y="677.659" transform="matrix(-0.7071 -0.7071 0.7071 -0.7071 -510.6556 2168.7996)" fill="#F15A29" width="253.001" height="1025.001"/>
<rect x="278.341" y="675.659" transform="matrix(-0.7071 -0.7071 0.7071 -0.7071 -149.0411 2314.584)" fill="#2E3192" width="253.001" height="1025.001"/>
<rect x="449.341" y="663.34" transform="matrix(-0.7071 -0.7071 0.7071 -0.7071 151.5852 2414.4697)" fill="#231F20" width="253.001" height="1025.001"/>
<polygon fill="#231F20" points="892.006,666.312 1062.503,371 1233,666.312 "/>
<polygon fill="#231F20" points="1231.006,665.312 1401.503,370 1572,665.312 "/>
<polygon fill="#231F20" points="1062.012,371.312 1232.509,76 1403.006,371.312 "/>
<path fill="#231F20" d="M2264.488,413.48L1970,583.501L2265.313,754V413.239C2265.055,413.34,2264.781,413.423,2264.488,413.48z"/>
<polygon fill="#231F20" points="2560,584.189 2264.688,413.692 2560,243.196 "/>
<polygon fill="#231F20" points="2560,924.078 2264.688,753.582 2560,583.085 "/>
<rect x="1982" y="1191" fill="none" width="573" height="244"/>
<text transform="matrix(1 0 0 1 2138 1418)" font-family="'MyriadPro-Regular'" font-size="72">Wissen.Leben</text>
<ellipse fill="#F7941E" cx="1844" cy="1162" rx="246" ry="200"/>
<ellipse fill="#C2B59B" cx="1776" cy="856" rx="102" ry="86"/>
<ellipse fill="#39B54A" cx="1782" cy="732" rx="52" ry="42"/>
<ellipse fill="#00AEEF" cx="1358" cy="1430" rx="224" ry="232"/>
<ellipse fill="#FFF200" cx="1574" cy="1364" rx="244" ry="222"/>
<ellipse fill="#594A42" cx="1940" cy="1056" rx="186" ry="194"/>
</svg>
