<?xml version="1.0" encoding="utf-8"?>
<!-- Generator: Adobe Illustrator 16.0.0, SVG Export Plug-In . SVG Version: 6.00 Build 0)  -->
<!DOCTYPE svg PUBLIC "-//W3C//DTD SVG 1.1//EN" "http://www.w3.org/Graphics/SVG/1.1/DTD/svg11.dtd">
<svg version="1.1" id="Layer_1" xmlns="http://www.w3.org/2000/svg" xmlns:xlink="http://www.w3.org/1999/xlink" x="0px" y="0px"
	 width="2460px" height="1440px" viewBox="0 0 2460 1440" enable-background="new 0 0 2460 1440" xml:space="preserve">
<rect x="-83.117" y="643.238" transform="matrix(-0.7058 -0.7085 0.7085 -0.7058 -927.6359 2477.1162)" fill="#3E3E3B" width="267.414" height="1575.914"/>
<polygon fill="#3E3E3B" points="570.475,410 829.125,0 1087.776,410 "/>
<polygon fill="#3E3E3B" points="856.699,0 1115.35,410 1374,0 "/>
<polygon fill="#3E3E3B" points="1076.424,1029 1335.074,619 1593.725,1029 "/>
<polygon fill="#3E3E3B" points="702.938,970.788 719,765 513.21,781.06 "/>
<polygon fill="#3E3E3B" points="-112,629 1,450 114,629 "/>
<polygon fill="#3E3E3B" points="817.424,1440 1076.074,1030 1334.725,1440 "/>
<polygon fill="#3E3E3B" points="1336.424,1440 1595.074,1030 1853.725,1440 "/>
<polygon fill="#3E3E3B" points="-113,986 0,807 113,986 "/>
<polygon fill="#3E3E3B" points="-112,808 1,629 114,808 "/>
<polygon fill="none" stroke="#333333" stroke-width="7" stroke-miterlimit="10" points="2460,1440 1980.5,1439 1980.5,1280 
	2460,1281 "/>
<rect x="2730" y="762" fill="none" stroke="#231F20" stroke-miterlimit="10" width="510" height="258"/>
<text transform="matrix(1 0 0 1 2016 1386)" font-family="'MyriadPro-Regular'" font-size="72">Wissen.Leben</text>
<path fill="none" d="M1893,1188"/>
<polyline fill="none" stroke="#333333" stroke-width="36" stroke-miterlimit="10" points="1893,456 2445,456 2445,1050 1908,1050 
	"/>
</svg>
