<?xml version="1.0" encoding="UTF-8" standalone="no"?>
<!-- Created with Inkscape (http://www.inkscape.org/) -->

<svg
   xmlns:dc="http://purl.org/dc/elements/1.1/"
   xmlns:cc="http://creativecommons.org/ns#"
   xmlns:rdf="http://www.w3.org/1999/02/22-rdf-syntax-ns#"
   xmlns:svg="http://www.w3.org/2000/svg"
   xmlns="http://www.w3.org/2000/svg"
   xmlns:sodipodi="http://sodipodi.sourceforge.net/DTD/sodipodi-0.dtd"
   xmlns:inkscape="http://www.inkscape.org/namespaces/inkscape"
   width="290"
   height="60"
   id="svg2"
   version="1.1"
   inkscape:version="0.48.4 r9939"
   sodipodi:docname="ribbon.svg">
  <defs
     id="defs4">
    <inkscape:perspective
       sodipodi:type="inkscape:persp3d"
       inkscape:vp_x="0 : 30 : 1"
       inkscape:vp_y="0 : 1000 : 0"
       inkscape:vp_z="290 : 30 : 1"
       inkscape:persp3d-origin="145 : 20 : 1"
       id="perspective3870" />
  </defs>
  <sodipodi:namedview
     id="base"
     pagecolor="#ffffff"
     bordercolor="#666666"
     borderopacity="1.0"
     inkscape:pageopacity="0.0"
     inkscape:pageshadow="2"
     inkscape:zoom="1.4142136"
     inkscape:cx="156.18833"
     inkscape:cy="123.14636"
     inkscape:document-units="px"
     inkscape:current-layer="layer1"
     showgrid="false"
     inkscape:window-width="1733"
     inkscape:window-height="745"
     inkscape:window-x="45"
     inkscape:window-y="41"
     inkscape:window-maximized="0"
     inkscape:snap-grids="true" />
  <metadata
     id="metadata7">
    <rdf:RDF>
      <cc:Work
         rdf:about="">
        <dc:format>image/svg+xml</dc:format>
        <dc:type
           rdf:resource="http://purl.org/dc/dcmitype/StillImage" />
        <dc:title />
      </cc:Work>
    </rdf:RDF>
  </metadata>
  <g
     inkscape:label="Ebene 1"
     inkscape:groupmode="layer"
     id="layer1"
     transform="translate(0,-992.36218)">
    <rect
       style="fill:#808080;fill-opacity:1;stroke:none"
       id="rect3045"
       width="290"
       height="60"
       x="0.0020113185"
       y="992.36212" />
    <path
       inkscape:connector-curvature="0"
       id="path3042-1"
       style="fill:#000000;fill-opacity:1;stroke:none"
       d="m 255.82906,1022.5077 0,-18.5162 14.26433,9.258 z m 0.003,-29.81134 28.03794,0 0,20.81824 -28.03794,0 z m 28.0362,30.76644 -14.54561,-9.9005 14.54561,-9.9004 z" />
    <path
       id="path3042"
       style="fill:#ef4a4a;fill-opacity:1;stroke:none"
       d="m 249.76455,31.997641 0,-20.893144 18.094,10.446572 z m 0.004,-33.6382208 35.56553,0 0,23.4906878 -35.56553,0 z m 35.56332,34.7159498 -18.4508,-11.171427 18.4508,-11.171424 z"
       transform="matrix(0.78834593,0,0,0.88623545,58.496538,993.77456)" />
    <path
       d="m 276.85438,995.37431 v 1.60699 h -15.21992 v -1.60699 h 4.28611 c 0.69812,0 1.2641,-0.50376 1.2641,-1.12499 h 4.11959 c 0,0.62123 0.56596,1.12499 1.26409,1.12499 h 4.28603 z m -0.82294,2.81217 v 12.60192 h -13.57405 v -12.60192 h 13.57405 z m -9.43563,2.50422 c 0,-0.3327 -0.30319,-0.6026 -0.67719,-0.6026 -0.37398,0 -0.67719,0.2699 -0.67719,0.6026 v 7.6336 c 0,0.3327 0.30321,0.6025 0.67719,0.6025 0.374,0 0.67719,-0.2698 0.67719,-0.6025 v -7.6336 z m 3.32581,0 c 0,-0.3327 -0.3032,-0.6026 -0.6772,-0.6026 -0.374,0 -0.6772,0.2699 -0.6772,0.6026 v 7.6336 c 0,0.3327 0.3032,0.6025 0.6772,0.6025 0.374,0 0.6772,-0.2698 0.6772,-0.6025 v -7.6336 z m 3.32579,0 c 0,-0.3327 -0.30318,-0.6026 -0.67719,-0.6026 -0.374,0 -0.67719,0.2699 -0.67719,0.6026 v 7.6336 c 0,0.3327 0.30319,0.6025 0.67719,0.6025 0.37401,0 0.67719,-0.2698 0.67719,-0.6025 v -7.6336 z"
       id="trash-can-icon"
       inkscape:connector-curvature="0"
       style="fill:#ffffff" />
  </g>
</svg>
