<?xml version="1.0" encoding="UTF-8" standalone="no"?>
<svg
   xmlns:dc="http://purl.org/dc/elements/1.1/"
   xmlns:cc="http://creativecommons.org/ns#"
   xmlns:rdf="http://www.w3.org/1999/02/22-rdf-syntax-ns#"
   xmlns:svg="http://www.w3.org/2000/svg"
   xmlns="http://www.w3.org/2000/svg"
   xmlns:sodipodi="http://sodipodi.sourceforge.net/DTD/sodipodi-0.dtd"
   xmlns:inkscape="http://www.inkscape.org/namespaces/inkscape"
   version="1.1"
   id="Layer_1"
   x="0px"
   y="0px"
   width="77.2727272727px"
   height="100px"
   viewBox="0 0 612 792"
   enable-background="new 0 0 612 792"
   xml:space="preserve"
   inkscape:version="0.48.4 r9939"
   sodipodi:docname="excel.svg"><metadata
   id="metadata11"><rdf:RDF><cc:Work
       rdf:about=""><dc:format>image/svg+xml</dc:format><dc:type
         rdf:resource="http://purl.org/dc/dcmitype/StillImage" /></cc:Work></rdf:RDF></metadata><defs
   id="defs9"><filter
     id="filter2983"
     inkscape:label="Invert"
     x="0"
     y="0"
     width="1"
     height="1"
     inkscape:menu="Color"
     inkscape:menu-tooltip="Invert colors"
     color-interpolation-filters="sRGB"><feColorMatrix
       id="feColorMatrix2985"
       type="saturate"
       values="1"
       result="fbSourceGraphic" /><feColorMatrix
       id="feColorMatrix2987"
       in="fbSourceGraphic"
       values="-1 0 0 0 1 0 -1 0 0 1 0 0 -1 0 1 0 0 0 1 0 " /></filter><filter
     id="filter2989"
     inkscape:label="Invert"
     x="0"
     y="0"
     width="1"
     height="1"
     inkscape:menu="Color"
     inkscape:menu-tooltip="Invert colors"
     color-interpolation-filters="sRGB"><feColorMatrix
       id="feColorMatrix2991"
       type="saturate"
       values="1"
       result="fbSourceGraphic" /><feColorMatrix
       id="feColorMatrix2993"
       in="fbSourceGraphic"
       values="-1 0 0 0 1 0 -1 0 0 1 0 0 -1 0 1 0 0 0 1 0 " /></filter></defs><sodipodi:namedview
   pagecolor="#ffffff"
   bordercolor="#666666"
   borderopacity="1"
   objecttolerance="10"
   gridtolerance="10"
   guidetolerance="10"
   inkscape:pageopacity="0"
   inkscape:pageshadow="2"
   inkscape:window-width="640"
   inkscape:window-height="480"
   id="namedview7"
   showgrid="false"
   inkscape:zoom="2.36"
   inkscape:cx="38.636364"
   inkscape:cy="50"
   inkscape:window-x="0"
   inkscape:window-y="0"
   inkscape:window-maximized="0"
   inkscape:current-layer="Layer_1" />
<path
   d="M 423.35904,4.2711864 H 1.8305084 V 797.7966 H 616.88137 V 196.33146 L 423.35904,4.2711864 z M 432.36612,56.372573 564.38336,187.39243 H 432.36612 V 56.372573 z M 32.583051,767.2764 V 34.791395 H 401.61357 V 217.91264 H 586.12883 V 767.2764 H 32.583051 z"
   id="path3"
   inkscape:connector-curvature="0"
   style="fill:#000000;filter:url(#filter2983)" />
<path
   d="M 94.088133,263.69295 V 645.19556 H 524.62374 V 263.69295 H 94.088133 z m 276.772897,15.2601 v 76.30052 H 247.85086 v -76.30052 h 123.01017 z m -123.01017,91.56063 h 123.01017 v 76.30053 H 247.85086 v -76.30053 z m -15.37627,76.30053 H 109.46441 v -76.30053 h 123.01018 v 76.30053 z m 0,-167.86116 v 76.30052 H 109.46441 V 278.95305 H 232.47459 z M 109.46441,462.0743 h 123.01018 v 76.30053 H 109.46441 V 462.0743 z m 0,167.86116 v -76.30052 h 123.01018 v 76.30052 H 109.46441 z m 399.78306,0 H 478.49493 V 523.11473 h -46.12881 v 106.82073 h -30.75255 v -76.30052 h -46.12881 v 76.30052 H 324.73221 V 584.15514 H 278.6034 v 45.78032 H 247.85086 V 462.0743 h 261.39661 v 167.86116 z m 0,-183.12125 H 386.2373 v -76.30053 h 123.01017 v 76.30053 z m 0,-91.56064 H 386.2373 v -76.30052 h 123.01017 v 76.30052 z"
   id="path5"
   inkscape:connector-curvature="0"
   style="fill:#000000;filter:url(#filter2989)" />
</svg>