<?xml version="1.0" encoding="UTF-8" standalone="no"?>
<svg
   xmlns:dc="http://purl.org/dc/elements/1.1/"
   xmlns:cc="http://creativecommons.org/ns#"
   xmlns:rdf="http://www.w3.org/1999/02/22-rdf-syntax-ns#"
   xmlns:svg="http://www.w3.org/2000/svg"
   xmlns="http://www.w3.org/2000/svg"
   xmlns:sodipodi="http://sodipodi.sourceforge.net/DTD/sodipodi-0.dtd"
   xmlns:inkscape="http://www.inkscape.org/namespaces/inkscape"
   version="1.1"
   width="100"
   height="100"
   viewBox="0 0 100.00 100.00"
   enable-background="new 0 0 100.00 100.00"
   xml:space="preserve"
   id="svg2"
   inkscape:version="0.48.4 r9939"
   sodipodi:docname="gif.svg"><metadata
   id="metadata10"><rdf:RDF><cc:Work
       rdf:about=""><dc:format>image/svg+xml</dc:format><dc:type
         rdf:resource="http://purl.org/dc/dcmitype/StillImage" /></cc:Work></rdf:RDF></metadata><defs
   id="defs8"><filter
     id="filter2982"
     inkscape:label="Invert"
     x="0"
     y="0"
     width="1"
     height="1"
     inkscape:menu="Color"
     inkscape:menu-tooltip="Invert colors"
     color-interpolation-filters="sRGB"><feColorMatrix
       id="feColorMatrix2984"
       type="saturate"
       values="1"
       result="fbSourceGraphic" /><feColorMatrix
       id="feColorMatrix2986"
       in="fbSourceGraphic"
       values="-1 0 0 0 1 0 -1 0 0 1 0 0 -1 0 1 0 0 0 1 0 " /></filter></defs><sodipodi:namedview
   pagecolor="#ffffff"
   bordercolor="#666666"
   borderopacity="1"
   objecttolerance="10"
   gridtolerance="10"
   guidetolerance="10"
   inkscape:pageopacity="0"
   inkscape:pageshadow="2"
   inkscape:window-width="640"
   inkscape:window-height="480"
   id="namedview6"
   showgrid="false"
   inkscape:zoom="2.36"
   inkscape:cx="50"
   inkscape:cy="50"
   inkscape:window-x="0"
   inkscape:window-y="0"
   inkscape:window-maximized="0"
   inkscape:current-layer="svg2" />
	<path
   d="m 10.805084,0.47671603 50.176554,-1.108e-5 25.95339,25.84836005 0,43.668997 c 4.032063,1.419385 6.920904,5.249191 6.920904,9.75097 l 0,10.339348 c 0,5.710298 -4.647858,10.33935 -10.381356,10.33935 l -41.525425,-1.1e-4 c -5.733386,0 -10.381245,-4.629051 -10.381245,-10.33924 l -20.762822,0 0,-89.60766397 z m 69.20904,34.46447297 -27.683617,1.1e-4 0,-27.5715959 -34.604519,0 0,75.8217789 13.841808,0 0,-3.44645 c 0,-5.710298 4.647969,-10.339348 10.381355,-10.339348 l 38.064973,0 0,-34.464495 z M 59.251412,9.0929279 l 0,18.9554721 19.032375,0 L 59.251412,9.0929279 z m -3.460895,84.4381231 0,-10.339349 -3.460452,0 -3.460452,0 0,3.446449 3.460452,0 0,3.44645 -6.920904,0 0,-10.339348 10.381356,0 0,-3.44645 -10.381356,0 0,3.44645 -3.460453,0 0,10.339348 3.460453,0 0,3.44645 10.381356,0 z m 17.302591,-17.232358 0,17.232137 3.460452,0 0,-6.892789 3.460453,0 0,-3.446449 -3.460453,0 0,-3.44645 6.920905,0 0,-3.446449 -10.381357,0 z m -3.460452,13.785798 -3.46034,-1.11e-4 0,-10.339348 3.46034,1.1e-4 0,-3.446449 -10.381355,0 0,3.446449 3.460452,0 0,10.339349 -3.460452,0 0,3.446339 10.381355,0 0,-3.446339 z"
   id="path4"
   inkscape:connector-curvature="0"
   style="fill:#000000;fill-opacity:1;stroke-width:0.20000000000000001;stroke-linejoin:round;filter:url(#filter2982)" />
</svg>