<?xml version="1.0" encoding="UTF-8" standalone="no"?>
<svg
   xmlns:dc="http://purl.org/dc/elements/1.1/"
   xmlns:cc="http://creativecommons.org/ns#"
   xmlns:rdf="http://www.w3.org/1999/02/22-rdf-syntax-ns#"
   xmlns:svg="http://www.w3.org/2000/svg"
   xmlns="http://www.w3.org/2000/svg"
   xmlns:sodipodi="http://sodipodi.sourceforge.net/DTD/sodipodi-0.dtd"
   xmlns:inkscape="http://www.inkscape.org/namespaces/inkscape"
   version="1.1"
   id="Layer_1"
   x="0px"
   y="0px"
   width="77.2727272727px"
   height="100px"
   viewBox="0 0 612 792"
   enable-background="new 0 0 612 792"
   xml:space="preserve"
   inkscape:version="0.48.4 r9939"
   sodipodi:docname="mail.svg"><metadata
   id="metadata11"><rdf:RDF><cc:Work
       rdf:about=""><dc:format>image/svg+xml</dc:format><dc:type
         rdf:resource="http://purl.org/dc/dcmitype/StillImage" /></cc:Work></rdf:RDF></metadata><defs
   id="defs9"><filter
     id="filter3027"
     inkscape:label="Invert"
     x="0"
     y="0"
     width="1"
     height="1"
     inkscape:menu="Color"
     inkscape:menu-tooltip="Invert colors"
     color-interpolation-filters="sRGB"><feColorMatrix
       id="feColorMatrix3029"
       type="saturate"
       values="1"
       result="fbSourceGraphic" /><feColorMatrix
       id="feColorMatrix3031"
       in="fbSourceGraphic"
       values="-1 0 0 0 1 0 -1 0 0 1 0 0 -1 0 1 0 0 0 1 0 " /></filter><filter
     id="filter3033"
     inkscape:label="Invert"
     x="0"
     y="0"
     width="1"
     height="1"
     inkscape:menu="Color"
     inkscape:menu-tooltip="Invert colors"
     color-interpolation-filters="sRGB"><feColorMatrix
       id="feColorMatrix3035"
       type="saturate"
       values="1"
       result="fbSourceGraphic" /><feColorMatrix
       id="feColorMatrix3037"
       in="fbSourceGraphic"
       values="-1 0 0 0 1 0 -1 0 0 1 0 0 -1 0 1 0 0 0 1 0 " /></filter><filter
     id="filter3039"
     inkscape:label="Invert"
     x="0"
     y="0"
     width="1"
     height="1"
     inkscape:menu="Color"
     inkscape:menu-tooltip="Invert colors"
     color-interpolation-filters="sRGB"><feColorMatrix
       id="feColorMatrix3041"
       type="saturate"
       values="1"
       result="fbSourceGraphic" /><feColorMatrix
       id="feColorMatrix3043"
       in="fbSourceGraphic"
       values="-1 0 0 0 1 0 -1 0 0 1 0 0 -1 0 1 0 0 0 1 0 " /></filter><filter
     id="filter3045"
     inkscape:label="Invert"
     x="0"
     y="0"
     width="1"
     height="1"
     inkscape:menu="Color"
     inkscape:menu-tooltip="Invert colors"
     color-interpolation-filters="sRGB"><feColorMatrix
       id="feColorMatrix3047"
       type="saturate"
       values="1"
       result="fbSourceGraphic" /><feColorMatrix
       id="feColorMatrix3049"
       in="fbSourceGraphic"
       values="-1 0 0 0 1 0 -1 0 0 1 0 0 -1 0 1 0 0 0 1 0 " /></filter><filter
     id="filter3051"
     inkscape:label="Invert"
     x="0"
     y="0"
     width="1"
     height="1"
     inkscape:menu="Color"
     inkscape:menu-tooltip="Invert colors"
     color-interpolation-filters="sRGB"><feColorMatrix
       id="feColorMatrix3053"
       type="saturate"
       values="1"
       result="fbSourceGraphic" /><feColorMatrix
       id="feColorMatrix3055"
       in="fbSourceGraphic"
       values="-1 0 0 0 1 0 -1 0 0 1 0 0 -1 0 1 0 0 0 1 0 " /></filter><filter
     id="filter3057"
     inkscape:label="Invert"
     x="0"
     y="0"
     width="1"
     height="1"
     inkscape:menu="Color"
     inkscape:menu-tooltip="Invert colors"
     color-interpolation-filters="sRGB"><feColorMatrix
       id="feColorMatrix3059"
       type="saturate"
       values="1"
       result="fbSourceGraphic" /><feColorMatrix
       id="feColorMatrix3061"
       in="fbSourceGraphic"
       values="-1 0 0 0 1 0 -1 0 0 1 0 0 -1 0 1 0 0 0 1 0 " /></filter><filter
     id="filter3063"
     inkscape:label="Invert"
     x="0"
     y="0"
     width="1"
     height="1"
     inkscape:menu="Color"
     inkscape:menu-tooltip="Invert colors"
     color-interpolation-filters="sRGB"><feColorMatrix
       id="feColorMatrix3065"
       type="saturate"
       values="1"
       result="fbSourceGraphic" /><feColorMatrix
       id="feColorMatrix3067"
       in="fbSourceGraphic"
       values="-1 0 0 0 1 0 -1 0 0 1 0 0 -1 0 1 0 0 0 1 0 " /></filter><filter
     id="filter3069"
     inkscape:label="Invert"
     x="0"
     y="0"
     width="1"
     height="1"
     inkscape:menu="Color"
     inkscape:menu-tooltip="Invert colors"
     color-interpolation-filters="sRGB"><feColorMatrix
       id="feColorMatrix3071"
       type="saturate"
       values="1"
       result="fbSourceGraphic" /><feColorMatrix
       id="feColorMatrix3073"
       in="fbSourceGraphic"
       values="-1 0 0 0 1 0 -1 0 0 1 0 0 -1 0 1 0 0 0 1 0 " /></filter><filter
     id="filter3075"
     inkscape:label="Invert"
     x="0"
     y="0"
     width="1"
     height="1"
     inkscape:menu="Color"
     inkscape:menu-tooltip="Invert colors"
     color-interpolation-filters="sRGB"><feColorMatrix
       id="feColorMatrix3077"
       type="saturate"
       values="1"
       result="fbSourceGraphic" /><feColorMatrix
       id="feColorMatrix3079"
       in="fbSourceGraphic"
       values="-1 0 0 0 1 0 -1 0 0 1 0 0 -1 0 1 0 0 0 1 0 " /></filter><filter
     id="filter3081"
     inkscape:label="Invert"
     x="0"
     y="0"
     width="1"
     height="1"
     inkscape:menu="Color"
     inkscape:menu-tooltip="Invert colors"
     color-interpolation-filters="sRGB"><feColorMatrix
       id="feColorMatrix3083"
       type="saturate"
       values="1"
       result="fbSourceGraphic" /><feColorMatrix
       id="feColorMatrix3085"
       in="fbSourceGraphic"
       values="-1 0 0 0 1 0 -1 0 0 1 0 0 -1 0 1 0 0 0 1 0 " /></filter><filter
     id="filter3087"
     inkscape:label="Invert"
     x="0"
     y="0"
     width="1"
     height="1"
     inkscape:menu="Color"
     inkscape:menu-tooltip="Invert colors"
     color-interpolation-filters="sRGB"><feColorMatrix
       id="feColorMatrix3089"
       type="saturate"
       values="1"
       result="fbSourceGraphic" /><feColorMatrix
       id="feColorMatrix3091"
       in="fbSourceGraphic"
       values="-1 0 0 0 1 0 -1 0 0 1 0 0 -1 0 1 0 0 0 1 0 " /></filter><filter
     id="filter3093"
     inkscape:label="Invert"
     x="0"
     y="0"
     width="1"
     height="1"
     inkscape:menu="Color"
     inkscape:menu-tooltip="Invert colors"
     color-interpolation-filters="sRGB"><feColorMatrix
       id="feColorMatrix3095"
       type="saturate"
       values="1"
       result="fbSourceGraphic" /><feColorMatrix
       id="feColorMatrix3097"
       in="fbSourceGraphic"
       values="-1 0 0 0 1 0 -1 0 0 1 0 0 -1 0 1 0 0 0 1 0 " /></filter><filter
     id="filter3099"
     inkscape:label="Invert"
     x="0"
     y="0"
     width="1"
     height="1"
     inkscape:menu="Color"
     inkscape:menu-tooltip="Invert colors"
     color-interpolation-filters="sRGB"><feColorMatrix
       id="feColorMatrix3101"
       type="saturate"
       values="1"
       result="fbSourceGraphic" /><feColorMatrix
       id="feColorMatrix3103"
       in="fbSourceGraphic"
       values="-1 0 0 0 1 0 -1 0 0 1 0 0 -1 0 1 0 0 0 1 0 " /></filter><filter
     id="filter3105"
     inkscape:label="Invert"
     x="0"
     y="0"
     width="1"
     height="1"
     inkscape:menu="Color"
     inkscape:menu-tooltip="Invert colors"
     color-interpolation-filters="sRGB"><feColorMatrix
       id="feColorMatrix3107"
       type="saturate"
       values="1"
       result="fbSourceGraphic" /><feColorMatrix
       id="feColorMatrix3109"
       in="fbSourceGraphic"
       values="-1 0 0 0 1 0 -1 0 0 1 0 0 -1 0 1 0 0 0 1 0 " /></filter><filter
     id="filter3111"
     inkscape:label="Invert"
     x="0"
     y="0"
     width="1"
     height="1"
     inkscape:menu="Color"
     inkscape:menu-tooltip="Invert colors"
     color-interpolation-filters="sRGB"><feColorMatrix
       id="feColorMatrix3113"
       type="saturate"
       values="1"
       result="fbSourceGraphic" /><feColorMatrix
       id="feColorMatrix3115"
       in="fbSourceGraphic"
       values="-1 0 0 0 1 0 -1 0 0 1 0 0 -1 0 1 0 0 0 1 0 " /></filter><filter
     id="filter3117"
     inkscape:label="Invert"
     x="0"
     y="0"
     width="1"
     height="1"
     inkscape:menu="Color"
     inkscape:menu-tooltip="Invert colors"
     color-interpolation-filters="sRGB"><feColorMatrix
       id="feColorMatrix3119"
       type="saturate"
       values="1"
       result="fbSourceGraphic" /><feColorMatrix
       id="feColorMatrix3121"
       in="fbSourceGraphic"
       values="-1 0 0 0 1 0 -1 0 0 1 0 0 -1 0 1 0 0 0 1 0 " /></filter></defs><sodipodi:namedview
   pagecolor="#ffffff"
   bordercolor="#666666"
   borderopacity="1"
   objecttolerance="10"
   gridtolerance="10"
   guidetolerance="10"
   inkscape:pageopacity="0"
   inkscape:pageshadow="2"
   inkscape:window-width="903"
   inkscape:window-height="731"
   id="namedview7"
   showgrid="false"
   inkscape:zoom="3.337544"
   inkscape:cx="39.030239"
   inkscape:cy="39.031817"
   inkscape:window-x="766"
   inkscape:window-y="87"
   inkscape:window-maximized="0"
   inkscape:current-layer="Layer_1" />
<path
   d="M 422.80311,1.4152542 H -1.0254238 V 798.29661 H 617.38136 V 194.28608 L 422.80311,1.4152542 z M 431.85933,53.735283 564.5969,185.31094 H 431.85933 V 53.735283 z M 29.894915,767.64733 V 32.064537 H 400.93899 V 215.96023 h 185.52203 v 551.6871 H 29.894915 z"
   id="path3"
   inkscape:connector-curvature="0"
   style="filter:url(#filter3027)" />
<path
   d="M 122.65594,307.90808 V 553.10234 H 493.7 V 307.90808 H 122.65594 z m 204.55865,127.90797 c -10.32052,8.36725 -27.75443,8.36725 -38.07324,0 L 150.32277,323.23272 H 466.03145 L 327.21459,435.81605 z m -47.86296,11.85956 c 7.94824,6.44658 18.38558,9.66986 28.82634,9.66986 10.43905,0 20.87982,-3.22498 28.82634,-9.66986 L 358.67776,430.09996 467.30777,537.7777 H 149.04816 l 108.63174,-107.67774 21.67173,17.57565 z m 198.8882,79.26757 -107.53922,-106.5965 107.53922,-87.21424 V 526.94318 z M 245.65532,420.34668 138.1161,526.94318 V 333.13244 l 107.53922,87.21424 z"
   id="path5"
   inkscape:connector-curvature="0"
   style="fill:#000000;filter:url(#filter3033)" />
<path
   style="fill:#000000;filter:url(#filter3039)"
   d="m 15.57475,54.352603 0,-15.413136 23.358051,0 23.358051,0 0,15.413136 0,15.413136 -23.358051,0 -23.358051,0 0,-15.413136 z m 43.432204,13.527316 c 0,-0.104899 -13.617189,-13.580282 -13.723192,-13.580282 -0.04196,0 -0.651796,0.464778 -1.355196,1.032839 -2.045921,1.652272 -2.532842,1.936476 -3.777545,2.20485 -0.95159,0.205175 -1.730466,0.188567 -2.69222,-0.05741 -1.120873,-0.286671 -1.621861,-0.58311 -3.34275,-1.977937 -0.815876,-0.661289 -1.524478,-1.202344 -1.574671,-1.202344 -0.05019,0 -3.185093,3.072246 -6.966444,6.827212 l -6.875186,6.827212 20.153602,0.0054 c 11.084481,0.003 20.153602,-0.03282 20.153602,-0.07955 z M 24.552504,59.5743 c 3.568591,-3.55303 6.485697,-6.491274 6.482458,-6.529434 -0.0061,-0.07166 -13.410049,-10.952805 -13.569729,-11.015709 -0.0493,-0.01942 -0.08964,5.50256 -0.08964,12.271069 l 0,12.30638 0.344279,-0.286127 c 0.189354,-0.15737 3.264036,-3.19315 6.832627,-6.746179 l 0,0 z m 35.805939,-11.413358 -0.02734,-6.138696 -6.817581,5.527501 -6.817583,5.5275 6.817583,6.740021 6.817581,6.740022 0.02734,-6.128827 c 0.01503,-3.370855 0.01503,-8.891239 0,-12.267521 l 0,0 z m -20.043341,7.457931 c 0.288464,-0.09667 0.691322,-0.300077 0.895241,-0.452016 0.545659,-0.406565 17.052802,-13.793496 17.425848,-14.131979 l 0.317796,-0.288353 -20.00353,-0.0031 c -11.703974,-0.0018 -19.988881,0.03617 -19.968221,0.09155 0.07965,0.213514 17.761487,14.464437 18.178287,14.651045 0.960104,0.429853 2.122292,0.4788 3.154579,0.132858 z"
   id="path2995"
   inkscape:connector-curvature="0"
   transform="scale(7.92,7.92)" /><path
   style="fill:#000000;filter:url(#filter3045)"
   d="m 15.57475,54.352603 0,-15.413136 23.358051,0 23.358051,0 0,15.413136 0,15.413136 -23.358051,0 -23.358051,0 0,-15.413136 z m 43.432204,13.530992 c 0,-0.102226 -13.620351,-13.583958 -13.723628,-13.583958 -0.04172,0 -0.65136,0.464778 -1.35476,1.032839 -2.045921,1.652272 -2.532842,1.936476 -3.777545,2.20485 -0.95159,0.205175 -1.730466,0.188567 -2.69222,-0.05741 -1.112109,-0.284429 -1.574064,-0.556664 -3.339854,-1.968212 -0.833937,-0.666638 -1.546376,-1.212069 -1.583197,-1.212069 -0.03682,0 -3.164984,3.072076 -6.951473,6.826836 l -6.884527,6.826837 20.153602,0.0058 c 11.084481,0.0032 20.153602,-0.0308 20.153602,-0.07551 z M 25.56852,58.560181 31.060172,53.061338 30.494368,52.583728 C 29.34028,51.609533 17.477457,42.011501 17.427475,42.011501 c -0.02853,0 -0.05188,5.535078 -0.05188,12.300172 l 0,12.300173 1.350635,-1.27641 c 0.74285,-0.702026 3.821879,-3.75089 6.842287,-6.775255 l 0,0 z m 34.789923,-10.398142 -0.02734,-6.137598 -6.815866,5.526385 -6.815866,5.526384 6.815866,6.739298 6.815866,6.739296 0.02734,-6.128083 c 0.01503,-3.370446 0.01503,-8.890003 0,-12.265682 l 0,0 z m -20.525218,7.584296 c 0.320445,-0.07644 0.758678,-0.230617 0.973851,-0.342625 0.361117,-0.187977 17.921868,-14.364737 18.049594,-14.571401 0.03208,-0.05191 -8.645781,-0.09199 -19.917617,-0.09199 -10.98596,0 -19.971031,0.03575 -19.966824,0.07945 0.0042,0.0437 0.159132,0.20305 0.344279,0.354117 0.185148,0.151067 3.387479,2.746621 7.116293,5.767897 11.132102,9.0198 10.626834,8.636264 11.64266,8.837661 0.652114,0.129288 1.113385,0.120602 1.757764,-0.0331 z"
   id="path2997"
   inkscape:connector-curvature="0"
   transform="scale(7.92,7.92)" /><path
   style="fill:#000000;filter:url(#filter3051)"
   d="m 15.57475,54.352603 0,-15.413136 23.358051,0 23.358051,0 0,15.413136 0,15.413136 -23.358051,0 -23.358051,0 0,-15.413136 z M 59.006844,67.885442 C 59.006739,67.80578 46.530112,55.436 45.687978,54.68063 l -0.448213,-0.402034 -1.299668,1.047719 c -2.063872,1.663779 -2.683106,2.016971 -3.940946,2.247802 -0.916659,0.168219 -1.615647,0.142301 -2.54035,-0.0942 -1.106178,-0.282912 -1.552227,-0.545237 -3.341239,-1.965003 -0.842239,-0.668403 -1.557281,-1.214325 -1.588983,-1.213159 -0.0317,0.0012 -3.156159,3.073358 -6.943236,6.827094 l -6.885593,6.824975 20.153602,0.0055 c 11.084481,0.003 20.153552,-0.03022 20.153492,-0.07391 l 0,3e-6 z m -32.800962,-9.962648 4.857826,-4.865091 -1.41503,-1.157835 c -2.895069,-2.368862 -12.012972,-9.745061 -12.140665,-9.821551 -0.105628,-0.06327 -0.132415,2.410362 -0.132415,12.227498 l 0,12.306818 1.986228,-1.912374 c 1.092426,-1.051805 4.172251,-4.101664 6.844056,-6.777465 l 0,0 z m 34.152561,-9.758538 -0.02734,-6.135381 -6.813012,5.523752 -6.813011,5.523753 6.813011,6.738856 6.813012,6.738855 0.02734,-6.127226 c 0.01503,-3.369976 0.01503,-8.88815 0,-12.262609 l 0,0 z m -19.963688,7.404669 c 0.623112,-0.23392 0.542617,-0.170747 10.508385,-8.247159 8.216238,-6.658566 7.891949,-6.391558 7.891949,-6.497951 0,-0.04593 -8.938029,-0.0835 -19.862288,-0.0835 -11.339999,0 -19.862288,0.03993 -19.862288,0.09306 0,0.129199 0.318496,0.39322 7.309988,6.059677 10.778847,8.736029 10.716464,8.688506 11.666436,8.887464 0.631876,0.132338 1.684318,0.03749 2.347818,-0.211595 l 0,0 z"
   id="path2999"
   inkscape:connector-curvature="0"
   transform="scale(7.92,7.92)" /><path
   style="fill:#000000;filter:url(#filter3057)"
   d="m 15.57475,54.352603 0,-15.413136 23.358051,0 23.358051,0 0,15.413136 0,15.413136 -23.358051,0 -23.358051,0 0,-15.413136 z m 43.209695,13.515176 c 0.111483,-0.07059 -1.386113,-1.614759 -6.038135,-6.225925 -3.402515,-3.372632 -6.481281,-6.408697 -6.841703,-6.74681 l -0.655311,-0.614753 -1.304435,1.048597 c -2.063084,1.658457 -2.688961,2.0146 -3.94571,2.245229 -0.916659,0.168219 -1.615647,0.142301 -2.54035,-0.0942 -1.102913,-0.282078 -1.547628,-0.543263 -3.345915,-1.965086 -0.84481,-0.667952 -1.559852,-1.21314 -1.588983,-1.211528 -0.02913,0.0016 -3.151483,3.073846 -6.93856,6.827185 l -6.885593,6.824253 19.968221,0.0035 c 11.425751,0.002 20.031644,-0.0367 20.116474,-0.09042 l 0,-10e-7 z M 26.94677,57.181867 31.062433,53.058823 29.11838,51.474112 c -7.219319,-5.88489 -11.562016,-9.360893 -11.621103,-9.30182 -0.03779,0.03778 -0.08123,5.552996 -0.09652,12.256027 l -0.02781,12.18733 2.729077,-2.655369 c 1.500992,-1.460453 4.581126,-4.510738 6.844741,-6.778413 z m 33.437302,-2.942885 0,-12.242858 -0.243917,0.19307 C 60.006,42.295383 56.929411,44.789088 53.30329,47.730761 l -6.592947,5.348498 6.757416,6.695572 c 3.716578,3.682564 6.793167,6.698145 6.836864,6.70129 0.0437,0.0031 0.07945,-5.503567 0.07945,-12.237139 l 0,0 z m -19.96822,1.320132 c 0.576319,-0.216074 0.920784,-0.487782 11.791915,-9.301217 3.623027,-2.937259 6.587322,-5.38032 6.587322,-5.429026 0,-0.102251 -38.184991,-0.09992 -39.141949,0.0024 l -0.635593,0.06795 1.694915,1.385583 c 3.847156,3.145025 13.753637,11.146859 14.917917,12.049757 0.688965,0.534293 1.380173,1.040576 1.536017,1.125074 0.815581,0.442208 2.220607,0.485225 3.249456,0.09949 z"
   id="path3001"
   inkscape:connector-curvature="0"
   transform="scale(7.92,7.92)" /><path
   style="fill:#000000;filter:url(#filter3063)"
   d="m 15.57475,54.352603 0,-15.413136 23.358051,0 23.358051,0 0,15.413136 0,15.413136 -23.358051,0 -23.358051,0 0,-15.413136 z m 43.180431,13.475663 c 0.0836,-0.08362 -8.704052,-8.95138 -11.846402,-11.954383 l -1.663853,-1.590069 -1.302249,1.046836 c -0.716237,0.575759 -1.516762,1.190294 -1.778944,1.365632 -1.487953,0.99509 -3.322728,1.238184 -5.11463,0.677651 -0.781548,-0.24448 -1.629705,-0.793681 -3.415132,-2.211375 l -1.11451,-0.884962 -6.834678,6.754743 c -3.759073,3.715108 -6.860422,6.796398 -6.891887,6.847309 -0.0716,0.115845 39.846414,0.06452 39.962285,-0.05138 l 0,0 z M 27.583178,56.545413 31.064064,53.05701 28.006907,50.575052 C 26.32547,49.209976 23.448161,46.882021 21.612886,45.401821 19.77761,43.92162 18.109178,42.575904 17.905259,42.411341 l -0.370763,-0.299205 -0.06759,0.982521 c -0.03718,0.540388 -0.07293,6.053151 -0.07945,12.250585 l -0.01186,11.268063 3.363347,-3.289744 c 1.849841,-1.809359 4.929746,-4.859526 6.844233,-6.778148 z M 60.384072,54.29081 c 0,-8.409435 -0.03425,-12.179616 -0.110403,-12.154231 -0.06072,0.02024 -3.135501,2.489897 -6.832843,5.488125 l -6.722438,5.451324 6.753393,6.69713 c 3.714366,3.683423 6.789145,6.699731 6.832842,6.702907 0.0437,0.0032 0.07945,-5.480189 0.07945,-12.185255 l 0,0 z m -20.182241,1.315176 c 0.633757,-0.193803 0.734581,-0.2626 2.756394,-1.880785 2.753547,-2.203839 13.722447,-11.0922 15.449243,-12.51889 l 0.397596,-0.328496 -0.72003,-0.068 c -0.926936,-0.08754 -35.86861,-0.06712 -37.689309,0.02202 l -1.376059,0.06737 1.958686,1.595518 c 10.038345,8.177092 15.465174,12.519349 16.142167,12.916094 0.789847,0.462881 1.962878,0.537176 3.081312,0.195161 z"
   id="path3003"
   inkscape:connector-curvature="0"
   transform="scale(7.92,7.92)" /><path
   style="fill:#000000;filter:url(#filter3069)"
   d="m 15.57475,54.352603 0,-15.413136 23.358051,0 23.358051,0 0,15.413136 0,15.413136 -23.358051,0 -23.358051,0 0,-15.413136 z m 41.048729,13.517997 2.224576,-0.06461 -4.713983,-4.748965 c -2.59269,-2.61193 -5.651353,-5.652527 -6.797027,-6.75688 l -2.083044,-2.007918 -1.320918,1.053743 c -2.475729,1.974974 -3.125875,2.275219 -4.947316,2.284724 -1.920209,0.01002 -2.661147,-0.331656 -5.351134,-2.467621 l -1.113849,-0.884443 -6.831068,6.751289 c -3.757087,3.713209 -6.831068,6.792618 -6.831068,6.843129 0,0.102372 34.232055,0.100151 37.764831,-0.0024 l 0,-4e-6 z M 28.218778,55.909749 31.064077,53.056734 26.364964,49.247988 c -2.584511,-2.09481 -5.628667,-4.557992 -6.76479,-5.473738 l -2.065678,-1.664993 -0.06614,1.513622 c -0.03637,0.832492 -0.07213,6.345938 -0.07945,12.2521 l -0.01331,10.738479 3.99894,-3.925346 c 2.199418,-2.158941 5.279326,-5.209204 6.84424,-6.778363 z m 32.165294,-1.60386 c 0,-6.638511 -0.03612,-12.092345 -0.08027,-12.119632 -0.05772,-0.03568 -13.106862,10.434698 -13.521768,10.849602 -0.07045,0.07045 13.352051,13.340049 13.493762,13.340049 0.07312,0 0.10828,-3.919433 0.10828,-12.070019 z M 40.57475,55.470627 c 0.262182,-0.136192 0.762712,-0.46701 1.112288,-0.735151 0.608159,-0.466484 13.119408,-10.586495 15.801604,-12.781489 l 1.288892,-1.054774 -1.077027,-0.06647 c -1.391203,-0.08586 -33.904506,-0.08488 -36.603109,0.0011 l -2.051505,0.06536 0.515488,0.431618 c 2.145707,1.7966 15.590537,12.634713 16.78463,13.530384 1.098178,0.823728 1.40475,0.924784 2.692722,0.887611 0.864581,-0.02495 1.146956,-0.0761 1.536017,-0.278199 z"
   id="path3005"
   inkscape:connector-curvature="0"
   transform="scale(7.92,7.92)" /><path
   style="fill:#000000;filter:url(#filter3075)"
   d="m 15.57475,54.352603 0,-15.413136 23.358051,0 23.358051,0 0,15.413136 0,15.413136 -23.358051,0 -23.358051,0 0,-15.413136 z m 40.572034,13.517868 2.701271,-0.06448 -4.290254,-4.325974 c -2.35964,-2.379286 -5.418284,-5.419897 -6.796986,-6.756914 l -2.506731,-2.43094 -1.32096,1.053775 c -0.726527,0.579576 -1.576783,1.221738 -1.889454,1.427026 -1.219383,0.800597 -2.888032,1.0934 -4.362148,0.76544 -1.048161,-0.233194 -1.825558,-0.631746 -2.933043,-1.503698 -0.495233,-0.389911 -1.197761,-0.94344 -1.561172,-1.230064 l -0.660749,-0.521136 -6.833954,6.750935 c -3.758676,3.713014 -6.833956,6.791325 -6.833956,6.840692 0,0.100387 33.060289,0.09625 37.288136,-0.0047 l 0,-3e-6 z M 28.852213,55.276216 31.059761,53.060643 26.097976,49.038462 c -2.728982,-2.2122 -5.772167,-4.676316 -6.762633,-5.475814 l -1.800847,-1.453633 -0.06554,2.414167 c -0.03605,1.327792 -0.0718,6.841316 -0.07945,12.252277 l -0.01391,9.838109 4.634534,-4.560889 c 2.548993,-2.508489 5.62793,-5.557897 6.842081,-6.776463 z m 31.517704,-1.135477 c 0.0061,-6.49793 -0.03009,-11.71728 -0.08178,-11.798889 -0.09368,-0.147904 -0.867236,0.459047 -10.312339,8.091262 -1.730446,1.398305 -3.135425,2.600586 -3.122175,2.671738 0.01325,0.07115 3.027268,3.093364 6.697819,6.71603 6.434294,6.350351 6.676129,6.575644 6.740645,6.279531 0.0368,-0.168921 0.07182,-5.550774 0.07783,-11.959672 z m -19.901099,1.360844 c 0.262182,-0.11832 0.810381,-0.470689 1.21822,-0.783041 0.731263,-0.560055 12.679029,-10.217559 15.582898,-12.595818 l 1.493913,-1.223511 -1.864676,-0.06623 c -2.565209,-0.09111 -29.845036,-0.10863 -34.272851,-0.02201 l -3.594615,0.07032 0.363683,0.306538 c 1.57756,1.329684 15.532243,12.590734 16.751109,13.51769 0.561672,0.427155 1.227685,0.843759 1.480033,0.925786 0.669702,0.217693 2.230277,0.146469 2.842286,-0.129722 l 0,0 z"
   id="path3007"
   inkscape:connector-curvature="0"
   transform="scale(7.92,7.92)" /><path
   style="fill:#000000;filter:url(#filter3081)"
   d="m 15.57475,54.352603 0,-15.413136 23.358051,0 23.358051,0 0,15.413136 0,15.413136 -23.358051,0 -23.358051,0 0,-15.413136 z m 39.883475,13.518466 3.38983,-0.06508 -3.866525,-3.903092 C 52.854941,61.7562 49.79845,58.71766 48.18933,57.150591 l -2.925675,-2.849218 -1.325891,1.049268 c -0.729241,0.577098 -1.581648,1.217188 -1.894241,1.422422 -1.219236,0.800499 -2.887955,1.093287 -4.362001,0.765343 -1.048161,-0.233194 -1.825558,-0.631746 -2.933043,-1.503698 -0.495233,-0.389911 -1.197037,-0.942864 -1.559566,-1.228785 l -0.659141,-0.519858 -6.841663,6.759964 -6.841664,6.759964 0.668178,0.06117 c 0.901095,0.08249 31.676146,0.08584 35.943602,0.0039 l 0,2e-6 z M 29.485943,54.642315 31.056034,53.063644 25.831282,48.829141 c -2.873614,-2.328976 -5.91596,-4.790853 -6.760769,-5.470838 l -1.536017,-1.236335 -0.06476,3.467012 c -0.03562,1.906857 -0.07137,7.417486 -0.07945,12.245842 l -0.01469,8.77883 5.270127,-5.196333 c 2.89857,-2.857984 5.976668,-5.906735 6.840218,-6.775004 z m 30.873233,-1.207827 c -0.01544,-6.039921 -0.06441,-11.017997 -0.108822,-11.06239 -0.04441,-0.04439 -0.235091,0.03176 -0.423729,0.169241 -0.943299,0.687464 -12.688767,10.184514 -12.878648,10.413308 -0.09658,0.116367 0.980697,1.241018 5.413058,5.651113 3.043497,3.028209 6.057157,6.003388 6.697022,6.611508 l 1.163392,1.105674 0.0829,-0.95339 c 0.04559,-0.524364 0.07027,-5.895143 0.05483,-11.935064 l 0,0 z m -19.889012,2.0632 c 0.261442,-0.116171 0.952044,-0.584047 1.534671,-1.039725 1.415024,-1.106702 15.296092,-12.336929 16.094137,-13.020669 l 0.628033,-0.538081 -2.534813,-0.06509 c -3.296029,-0.08464 -29.512937,-0.08476 -33.829535,-1.49e-4 l -3.328619,0.06524 5.269242,4.275344 c 7.361065,5.972602 12.120792,9.776355 12.604339,10.072805 0.740404,0.453919 1.116722,0.542272 2.132461,0.50066 0.654071,-0.0268 1.104433,-0.105632 1.430084,-0.250334 z"
   id="path3009"
   inkscape:connector-curvature="0"
   transform="scale(7.92,7.92)" /><path
   style="fill:#000000;filter:url(#filter3087)"
   d="m 15.57475,54.352603 0,-15.413136 23.358051,0 23.358051,0 0,15.413136 0,15.413136 -23.358051,0 -23.358051,0 0,-15.413136 z m 38.400424,13.517983 4.872881,-0.06459 -3.38983,-3.42722 c -1.864407,-1.884972 -4.920472,-4.922927 -6.791256,-6.751014 l -3.401423,-3.323794 -1.384859,1.094494 c -0.761673,0.601971 -1.614507,1.240827 -1.895187,1.419679 -1.192028,0.759574 -2.867219,1.039916 -4.303978,0.720268 -1.318383,-0.293312 -1.875278,-0.636129 -4.710786,-2.899893 l -0.438,-0.349683 -6.836277,6.758581 -6.836276,6.758582 1.4558,0.05754 c 2.028739,0.08018 27.735847,0.08557 33.659191,0.0071 l 0,-10e-7 z M 30.12155,54.006323 31.056061,53.061945 24.824939,48.01883 c -7.167184,-5.800712 -7.223213,-5.845039 -7.295951,-5.772301 -0.03001,0.03001 -0.0841,5.530978 -0.120216,12.224382 l -0.06566,12.169828 5.921963,-5.845018 c 3.25708,-3.214761 6.342493,-6.26999 6.856475,-6.789398 z m 30.249189,0.875941 c 0.01262,-9.209179 -0.04518,-12.552966 -0.21699,-12.552966 -0.210812,0 -13.223067,10.560828 -13.223067,10.731924 0,0.143385 6.683834,6.862228 10.540255,10.595462 l 2.754237,2.666258 0.06647,-1.112288 c 0.03656,-0.611759 0.07215,-5.259534 0.0791,-10.32839 z m -19.880528,0.606557 c 0.250416,-0.111294 0.90915,-0.5577 1.463854,-0.992015 1.779683,-1.393432 16.141479,-13.028465 16.450892,-13.327489 l 0.298428,-0.288406 -4.155819,-0.0703 c -4.928577,-0.08337 -24.887182,-0.06803 -31.125854,0.02392 l -4.388208,0.06468 5.500496,4.455352 c 12.468481,10.099355 12.478956,10.107471 13.339479,10.336157 0.538961,0.143229 2.113532,0.02174 2.616732,-0.201901 l 0,0 z"
   id="path3011"
   inkscape:connector-curvature="0"
   transform="scale(7.92,7.92)" /><path
   style="fill:#000000;filter:url(#filter3093)"
   d="m 15.57475,54.352603 0,-15.413136 23.358051,0 23.358051,0 0,15.413136 0,15.413136 -23.358051,0 -23.358051,0 0,-15.413136 z m 36.652543,13.517999 6.620762,-0.06461 -2.860169,-2.898882 c -1.573093,-1.594386 -4.629053,-4.63227 -6.791021,-6.750853 l -3.930851,-3.851971 -1.442302,1.138786 c -1.836783,1.450253 -2.370278,1.769161 -3.400266,2.032587 -1.054402,0.269672 -1.922016,0.270918 -2.964645,0.0043 -1.101697,-0.281767 -1.588834,-0.565155 -3.394877,-1.97495 l -1.538581,-1.201014 -6.83053,6.751019 -6.830531,6.751019 2.195276,0.05622 c 3.114088,0.07975 23.298435,0.08518 31.167735,0.0084 z M 30.753821,53.372609 31.049418,53.060884 24.768651,47.98053 c -7.541885,-6.100441 -7.169191,-5.804473 -7.231164,-5.7425 -0.02753,0.02753 -0.08253,5.529404 -0.122213,12.226383 l -0.07215,12.176326 6.557553,-6.478202 c 3.606654,-3.563011 6.690571,-6.618478 6.853149,-6.789928 z M 60.369752,54.6704 c 0.01389,-8.47111 -0.05293,-12.341102 -0.213072,-12.341102 -0.08988,0 -5.073109,3.979564 -9.730235,7.770488 -2.768324,2.253432 -3.420365,2.807293 -3.480768,2.956661 -0.04546,0.112423 5.422331,5.621644 9.995599,10.071334 l 3.283898,3.195161 0.06543,-1.641949 c 0.03599,-0.903072 0.0716,-5.407839 0.07915,-10.010593 z m -20.575806,0.996198 c 0.508317,-0.08852 0.838005,-0.234143 1.388223,-0.613182 0.619927,-0.427062 15.960536,-12.794151 17.129915,-13.809569 l 0.417417,-0.362461 -5.025468,-0.07041 c -6.425337,-0.09003 -17.596368,-0.09008 -27.164857,-1.27e-4 l -7.502751,0.07053 0.269647,0.220779 c 4.712461,3.858437 16.151546,13.069339 17.137322,13.799203 1.183202,0.876035 1.845579,1.027316 3.350552,0.765236 z"
   id="path3013"
   inkscape:connector-curvature="0"
   transform="scale(7.92,7.92)" /><path
   style="fill:#000000;filter:url(#filter3099)"
   d="m 15.57475,54.352603 0,-15.413136 23.358051,0 23.358051,0 0,15.413136 0,15.413136 -23.358051,0 -23.358051,0 0,-15.413136 z m 31.753178,13.541776 c 6.248676,-0.03872 11.361229,-0.109558 11.361229,-0.157414 0,-0.13337 -4.539947,-4.716956 -9.21481,-9.303385 l -4.202078,-4.122587 -1.440732,1.133093 c -1.838569,1.44598 -2.379718,1.768562 -3.408091,2.031574 -1.054402,0.269672 -1.922016,0.270918 -2.964645,0.0043 -1.101504,-0.281717 -1.588877,-0.565189 -3.392975,-1.973465 l -1.536678,-1.199529 -6.7558,6.674959 c -3.715691,3.671228 -6.771456,6.719731 -6.79059,6.774451 -0.06118,0.174966 12.508432,0.236181 28.34517,0.138044 z M 24.30108,59.77519 31.067664,53.077832 24.35937,47.650599 c -3.689562,-2.984978 -6.738608,-5.427233 -6.775659,-5.427233 -0.07555,0 -0.208113,12.493983 -0.208113,19.614945 0,2.553941 0.03575,4.641438 0.07945,4.638883 0.0437,-0.0026 3.124412,-3.018456 6.846033,-6.702004 z m 36.031343,2.495845 c 0.107658,-5.307327 0.01812,-19.699842 -0.123434,-19.841397 -0.107879,-0.107878 -6.052213,4.583783 -10.881367,8.588291 -1.157847,0.960131 -2.176234,1.802571 -2.263079,1.872091 -0.135634,0.108575 -0.100185,0.19687 0.251364,0.626091 0.610314,0.745154 12.668505,12.647933 12.813077,12.647933 0.09165,0 0.145294,-1.02656 0.203439,-3.893009 z M 40.623489,55.36585 C 40.97539,55.190907 42.192865,54.299108 43.328987,53.384077 47.075174,50.3669 55.32165,43.691904 57.043538,42.283022 l 1.691245,-1.383809 -7.888034,-0.09246 c -8.555426,-0.100281 -31.698684,0.01111 -31.648323,0.152332 0.05012,0.14055 14.995555,12.226417 17.024689,13.767292 1.178454,0.894889 1.702299,1.07974 2.864357,1.010753 0.71403,-0.04239 1.026247,-0.117858 1.536017,-0.371282 l 0,0 z"
   id="path3015"
   inkscape:connector-curvature="0"
   transform="scale(7.92,7.92)" /><path
   style="fill:#000000;filter:url(#filter3105)"
   d="m 15.57475,54.352603 0,-15.413136 23.358051,0 23.358051,0 0,15.413136 0,15.413136 -23.358051,0 -23.358051,0 0,-15.413136 z m 42.616996,13.412995 0.523454,-0.06554 -2.064686,-2.118644 c -1.135577,-1.165255 -4.159162,-4.176523 -6.719077,-6.691708 l -4.654393,-4.573062 -1.443733,1.130265 c -1.849347,1.447814 -2.385368,1.766726 -3.409865,2.028748 -1.054402,0.269672 -1.922016,0.270918 -2.964645,0.0043 -1.1,-0.281333 -1.586425,-0.563875 -3.397649,-1.973542 l -1.541259,-1.199554 -6.751173,6.692104 c -3.713145,3.680657 -6.76688,6.729337 -6.786076,6.774846 -0.0192,0.04551 1.863748,0.09851 4.184322,0.117795 6.222914,0.0517 34.415577,-0.0497 35.02478,-0.125969 l 0,-10e-7 z M 24.298878,59.774929 31.063261,53.078185 25.146336,48.29469 c -8.253561,-6.672531 -7.493844,-6.084268 -7.575922,-5.866183 -0.110215,0.292848 -0.239688,24.054057 -0.131037,24.048251 0.05232,-0.0028 3.139091,-3.018619 6.859501,-6.701829 z m 36.032228,-5.52471 c 0,-6.430259 -0.03582,-11.727208 -0.07961,-11.770999 -0.04378,-0.04379 -0.18932,-0.0209 -0.323412,0.05086 -0.506766,0.271213 -12.245581,9.758954 -12.77042,10.321522 l -0.249711,0.267663 2.315389,2.351099 c 1.273464,1.293105 4.237205,4.234596 6.58609,6.536647 3.290743,3.22513 4.299494,4.156755 4.396187,4.060067 0.09518,-0.09517 0.125486,-2.949283 0.125486,-11.816859 z m -19.809322,1.172644 c 0.680321,-0.314456 2.525493,-1.777678 14.300848,-11.340584 l 3.919491,-3.183066 -6.673729,-0.07674 c -6.820671,-0.07843 -32.076613,-0.0083 -32.597543,0.09051 -0.282458,0.05358 -0.275044,0.06576 0.370763,0.609361 2.396556,2.017261 15.765866,12.759915 16.783757,13.486268 0.382951,0.273267 0.915775,0.559008 1.184055,0.634979 0.700768,0.198443 2.041543,0.08933 2.712358,-0.220728 l 0,0 z"
   id="path3017"
   inkscape:connector-curvature="0"
   transform="scale(7.92,7.92)" /><path
   style="fill:#000000;filter:url(#filter3111)"
   d="m 15.57475,54.352603 0,-15.413136 23.358051,0 23.358051,0 0,15.413136 0,15.413136 -23.358051,0 -23.358051,0 0,-15.413136 z m 42.242848,13.419475 0.876321,-0.07202 -1.630292,-1.694916 c -0.896661,-0.932203 -3.914983,-3.942639 -6.707382,-6.689859 l -5.077089,-4.994942 -1.443944,1.128417 c -1.849734,1.445536 -2.387259,1.764875 -3.411766,2.026899 -1.054402,0.269672 -1.922016,0.270918 -2.964645,0.0043 -1.090117,-0.278805 -1.565539,-0.552784 -3.330739,-1.919456 -0.820416,-0.635193 -1.542317,-1.154894 -1.604225,-1.154894 -0.132347,0 -13.453324,13.231181 -13.453324,13.362637 0,0.164702 36.74537,0.168374 38.747085,0.0039 l 0,-5e-6 z m -32.99035,-8.520369 6.233431,-6.170292 -0.67199,-0.541731 c -0.369595,-0.297953 -3.362501,-2.717179 -6.650905,-5.37606 -3.288403,-2.65888 -6.012069,-4.834328 -6.05259,-4.834328 -0.168412,0 -0.198997,1.432074 -0.26804,12.550301 l -0.07234,11.649876 0.624505,-0.553736 c 0.343477,-0.304556 3.429548,-3.33037 6.857934,-6.72403 z m 35.48663,2.498788 c 0.130533,-8.010478 0.03143,-19.315267 -0.169324,-19.315267 -0.144472,0 -1.888174,1.356938 -5.90455,4.594886 -4.058336,3.271776 -6.991835,5.690462 -7.187261,5.925935 -0.114316,0.137743 0.175927,0.478206 1.964061,2.303897 3.26874,3.337396 10.927967,10.798164 11.085401,10.798164 0.114547,0 0.154842,-0.819983 0.211673,-4.307615 z M 40.168794,55.565959 c 0.682723,-0.1837 1.844382,-1.093423 14.120631,-11.058195 l 4.445606,-3.608551 -7.305776,-0.06771 c -7.645199,-0.07086 -31.20551,-0.01264 -31.805542,0.07859 -0.190973,0.02903 -0.318558,0.09917 -0.283523,0.15586 0.148928,0.240972 16.517361,13.433035 17.421001,14.040376 0.457169,0.307267 0.869822,0.497854 1.324152,0.611573 0.289134,0.07237 1.606975,-0.02374 2.083451,-0.151943 l 0,0 z"
   id="path3019"
   inkscape:connector-curvature="0"
   transform="scale(7.92,7.92)" /><path
   style="fill:#000000;filter:url(#filter3117)"
   d="m 15.57475,54.352603 0,-15.413136 23.358051,0 23.358051,0 0,15.413136 0,15.413136 -23.358051,0 -23.358051,0 0,-15.413136 z m 41.820999,13.437411 1.282228,-0.06894 -1.215066,-1.294045 c -0.668286,-0.711725 -3.683172,-3.726769 -6.699749,-6.700099 l -5.484683,-5.406052 -1.443606,1.128153 c -1.849382,1.445261 -2.386958,1.764619 -3.411427,2.026634 -1.054402,0.269672 -1.922016,0.270918 -2.964645,0.0043 -1.090117,-0.278805 -1.565539,-0.552784 -3.330739,-1.919456 -0.820416,-0.635193 -1.538762,-1.154894 -1.596326,-1.154894 -0.05756,0 -3.111885,2.987212 -6.787383,6.638249 -4.703204,4.671904 -6.642184,6.663967 -6.545866,6.725073 0.161121,0.102217 36.31722,0.122212 38.197262,0.02112 l 0,0 z m -32.25212,-8.856637 5.914216,-5.85196 -5.384555,-4.349814 C 18.011227,42.541949 17.694815,42.29257 17.61045,42.3769 c -0.08302,0.08299 -0.208034,10.607616 -0.224481,18.899242 l -0.01037,5.228624 0.926906,-0.859714 c 0.509799,-0.472842 3.588305,-3.493096 6.841125,-6.711675 l 0,0 z m 35.094204,6.886387 c 0.128507,-0.383339 0.105922,-22.980631 -0.02319,-23.204689 -0.100488,-0.17438 -0.169027,-0.147562 -0.791268,0.309611 -0.85413,0.627547 -7.879377,6.269555 -10.425771,8.372985 -1.048047,0.865731 -1.920144,1.649896 -1.937995,1.74259 -0.01936,0.100538 0.685323,0.908477 1.74664,2.002562 2.270104,2.340197 11.137525,11.015289 11.259501,11.015289 0.0507,0 0.128139,-0.107257 0.172085,-0.238348 z M 40.262818,55.510161 c 0.637854,-0.204262 1.33082,-0.738847 9.081125,-7.005588 8.917215,-7.210281 9.239282,-7.474247 9.239282,-7.572552 0,-0.137003 -38.309777,-0.132344 -38.97807,0.0047 l -0.365782,0.07503 2.007731,1.645502 c 3.070514,2.516539 10.014054,8.11867 12.922809,10.426276 2.621259,2.079527 3.182235,2.457773 3.862464,2.604313 0.490631,0.105696 1.628539,0.01503 2.230441,-0.177723 l 0,0 z"
   id="path3021"
   inkscape:connector-curvature="0"
   transform="scale(7.92,7.92)" /></svg>