<?xml version="1.0" encoding="UTF-8" standalone="no"?>
<svg
   xmlns:dc="http://purl.org/dc/elements/1.1/"
   xmlns:cc="http://creativecommons.org/ns#"
   xmlns:rdf="http://www.w3.org/1999/02/22-rdf-syntax-ns#"
   xmlns:svg="http://www.w3.org/2000/svg"
   xmlns="http://www.w3.org/2000/svg"
   xmlns:sodipodi="http://sodipodi.sourceforge.net/DTD/sodipodi-0.dtd"
   xmlns:inkscape="http://www.inkscape.org/namespaces/inkscape"
   version="1.1"
   id="Layer_1"
   x="0px"
   y="0px"
   width="77.2727272727px"
   height="100px"
   viewBox="0 0 612 792"
   enable-background="new 0 0 612 792"
   xml:space="preserve"
   inkscape:version="0.48.4 r9939"
   sodipodi:docname="visio.svg"><metadata
   id="metadata11"><rdf:RDF><cc:Work
       rdf:about=""><dc:format>image/svg+xml</dc:format><dc:type
         rdf:resource="http://purl.org/dc/dcmitype/StillImage" /></cc:Work></rdf:RDF></metadata><defs
   id="defs9"><filter
     id="filter2983"
     inkscape:label="Invert"
     x="0"
     y="0"
     width="1"
     height="1"
     inkscape:menu="Color"
     inkscape:menu-tooltip="Invert colors"
     color-interpolation-filters="sRGB"><feColorMatrix
       id="feColorMatrix2985"
       type="saturate"
       values="1"
       result="fbSourceGraphic" /><feColorMatrix
       id="feColorMatrix2987"
       in="fbSourceGraphic"
       values="-1 0 0 0 1 0 -1 0 0 1 0 0 -1 0 1 0 0 0 1 0 " /></filter><filter
     id="filter2989"
     inkscape:label="Invert"
     x="0"
     y="0"
     width="1"
     height="1"
     inkscape:menu="Color"
     inkscape:menu-tooltip="Invert colors"
     color-interpolation-filters="sRGB"><feColorMatrix
       id="feColorMatrix2991"
       type="saturate"
       values="1"
       result="fbSourceGraphic" /><feColorMatrix
       id="feColorMatrix2993"
       in="fbSourceGraphic"
       values="-1 0 0 0 1 0 -1 0 0 1 0 0 -1 0 1 0 0 0 1 0 " /></filter></defs><sodipodi:namedview
   pagecolor="#ffffff"
   bordercolor="#666666"
   borderopacity="1"
   objecttolerance="10"
   gridtolerance="10"
   guidetolerance="10"
   inkscape:pageopacity="0"
   inkscape:pageshadow="2"
   inkscape:window-width="640"
   inkscape:window-height="480"
   id="namedview7"
   showgrid="false"
   inkscape:zoom="2.36"
   inkscape:cx="38.636364"
   inkscape:cy="50"
   inkscape:window-x="0"
   inkscape:window-y="0"
   inkscape:window-maximized="0"
   inkscape:current-layer="Layer_1" />
<path
   d="M 423.85903,1.4152542 H 2.3305085 V 794.94067 H 617.38136 V 193.47383 L 423.85903,1.4152542 z M 432.8661,53.514946 564.88335,184.5365 H 432.8661 V 53.514946 z M 33.08305,764.42047 V 31.935463 H 402.11356 V 215.05671 H 586.62882 V 764.42047 H 33.08305 z"
   id="path3"
   inkscape:connector-curvature="0"
   style="filter:url(#filter2983)" />
<path
   d="m 486.68305,451.58833 c -3.55875,0 -6.9159,0.82235 -9.92453,2.25171 L 403.4325,381.06969 c 4.14135,-6.18713 6.3692,-13.44415 6.3692,-21.04199 0,-21.03521 -17.24535,-38.15026 -38.44068,-38.15026 -7.82481,0 -15.10633,2.33819 -21.18338,6.33803 l -73.3431,-72.7907 c 1.44024,-2.98589 2.26885,-6.31768 2.26885,-9.84955 0,-12.64215 -10.32602,-22.89016 -23.0644,-22.89016 -12.73839,0 -23.06441,10.24801 -23.06441,22.89016 0,12.64215 10.32602,22.89016 23.06441,22.89016 3.55875,0 6.91419,-0.82235 9.92452,-2.25172 l 52.72353,52.3269 c -19.79951,-7.83521 -41.00681,-11.92323 -62.64805,-11.92323 -31.76567,0 -62.54897,8.75761 -89.33614,25.32839 -6.84757,-6.24647 -15.97595,-10.06828 -25.9859,-10.06828 -21.19534,0 -38.44068,17.11505 -38.44068,38.15026 0,21.03521 17.24534,38.15026 38.44068,38.15026 21.19533,0 38.44068,-17.11505 38.44068,-38.15026 0,-5.59537 -1.2301,-10.90928 -3.42037,-15.70095 24.12879,-14.69718 51.78216,-22.44931 80.30173,-22.44931 28.49906,0 56.17122,7.76739 80.29659,22.45948 -2.18685,4.78998 -3.41524,10.0988 -3.41524,15.69078 0,21.03521 17.24534,38.15026 38.44068,38.15026 5.55083,0 10.90519,-1.19537 15.81706,-3.39961 14.81076,23.94649 22.62362,51.39264 22.62362,79.70013 0,21.79143 -4.48987,42.70117 -13.34661,62.27818 -3.10259,-0.80878 -6.36065,-1.23776 -9.7178,-1.23776 -21.19534,0 -38.44068,17.11505 -38.44068,38.15026 0,21.03521 17.24534,38.15026 38.44068,38.15026 21.19534,0 38.44068,-17.11505 38.44068,-38.15026 0,-12.25725 -5.86178,-23.17501 -14.94061,-30.15905 9.78785,-21.55914 14.94061,-45.23943 14.94061,-69.03163 0,-21.49301 -4.11743,-42.5316 -12.014,-62.17305 l 52.72353,52.3235 c -1.44024,2.9859 -2.26885,6.31769 -2.26885,9.84955 0,12.64215 10.32602,22.89016 23.0644,22.89016 12.73839,0 23.06441,-10.24801 23.06441,-22.89016 0,-12.64215 -10.32602,-22.89015 -23.06441,-22.89015 z m -345.9661,-68.67047 c -12.71789,0 -23.06441,-10.26836 -23.06441,-22.89016 0,-12.6218 10.34652,-22.89016 23.06441,-22.89016 12.71788,0 23.0644,10.26836 23.0644,22.89016 0,12.6218 -10.34652,22.89016 -23.0644,22.89016 z m 246.02034,213.64146 c -12.71788,0 -23.06441,-10.26836 -23.06441,-22.89016 0,-12.6218 10.34653,-22.89016 23.06441,-22.89016 12.71788,0 23.06441,10.26836 23.06441,22.89016 0,12.6218 -10.34653,22.89016 -23.06441,22.89016 z M 348.29661,360.0277 c 0,-12.6218 10.34652,-22.89016 23.06441,-22.89016 12.71788,0 23.06441,10.26836 23.06441,22.89016 0,6.11421 -2.3987,11.86388 -6.7536,16.18588 -4.35832,4.3237 -10.14663,6.70428 -16.31081,6.70428 -12.71789,0 -23.06441,-10.26836 -23.06441,-22.89016 z"
   id="path5"
   inkscape:connector-curvature="0"
   style="filter:url(#filter2989)" />
</svg>