<?xml version="1.0" encoding="UTF-8" standalone="no"?>
<svg
   xmlns:dc="http://purl.org/dc/elements/1.1/"
   xmlns:cc="http://creativecommons.org/ns#"
   xmlns:rdf="http://www.w3.org/1999/02/22-rdf-syntax-ns#"
   xmlns:svg="http://www.w3.org/2000/svg"
   xmlns="http://www.w3.org/2000/svg"
   xmlns:sodipodi="http://sodipodi.sourceforge.net/DTD/sodipodi-0.dtd"
   xmlns:inkscape="http://www.inkscape.org/namespaces/inkscape"
   version="1.1"
   id="Layer_1"
   x="0px"
   y="0px"
   width="77.2727272727px"
   height="100px"
   viewBox="0 0 612 792"
   enable-background="new 0 0 612 792"
   xml:space="preserve"
   inkscape:version="0.48.4 r9939"
   sodipodi:docname="excel.svg"><metadata
   id="metadata11"><rdf:RDF><cc:Work
       rdf:about=""><dc:format>image/svg+xml</dc:format><dc:type
         rdf:resource="http://purl.org/dc/dcmitype/StillImage" /></cc:Work></rdf:RDF></metadata><defs
   id="defs9" /><sodipodi:namedview
   pagecolor="#ffffff"
   bordercolor="#666666"
   borderopacity="1"
   objecttolerance="10"
   gridtolerance="10"
   guidetolerance="10"
   inkscape:pageopacity="0"
   inkscape:pageshadow="2"
   inkscape:window-width="779"
   inkscape:window-height="480"
   id="namedview7"
   showgrid="false"
   inkscape:zoom="2.36"
   inkscape:cx="38.636364"
   inkscape:cy="50"
   inkscape:window-x="0"
   inkscape:window-y="0"
   inkscape:window-maximized="0"
   inkscape:current-layer="Layer_1" />
<path
   d="M 419.81495,10.983051 H 5.1864406 V 787.72881 H 610.1695 V 198.98208 L 419.81495,10.983051 z m 8.85964,50.999666 129.85625,128.249353 H 428.67459 V 61.982717 z M 35.435593,757.85398 V 40.857888 H 398.42543 V 220.10691 H 579.92035 V 757.85398 H 35.435593 z"
   id="path3"
   inkscape:connector-curvature="0"
   style="fill:#009dd1;fill-opacity:1" />
<path
   d="M 95.933896,264.91916 V 638.35463 H 519.42204 V 264.91916 H 95.933896 z m 272.242384,14.93742 v 74.68709 H 247.17967 v -74.68709 h 120.99661 z m -120.99661,89.62451 h 120.99661 v 74.6871 H 247.17967 v -74.6871 z m -15.12457,74.6871 H 111.05848 v -74.6871 H 232.0551 v 74.6871 z m 0,-164.31161 v 74.68709 H 111.05848 V 279.85658 H 232.0551 z M 111.05848,459.1056 H 232.0551 v 74.6871 H 111.05848 v -74.6871 z m 0,164.31161 V 548.73012 H 232.0551 v 74.68709 H 111.05848 z m 393.23899,0 H 474.04832 V 518.85528 h -45.37373 v 104.56193 h -30.24916 v -74.68709 h -45.37372 v 74.68709 h -30.24916 v -44.81226 h -45.37373 v 44.81226 H 247.17967 V 459.1056 h 257.1178 v 164.31161 z m 0,-179.24902 H 383.30086 v -74.6871 h 120.99661 v 74.6871 z m 0,-89.62452 H 383.30086 v -74.68709 h 120.99661 v 74.68709 z"
   id="path5"
   inkscape:connector-curvature="0"
   style="fill:#009dd1;fill-opacity:1" />
</svg>