<?xml version="1.0" encoding="UTF-8" standalone="no"?>
<svg
   xmlns:dc="http://purl.org/dc/elements/1.1/"
   xmlns:cc="http://creativecommons.org/ns#"
   xmlns:rdf="http://www.w3.org/1999/02/22-rdf-syntax-ns#"
   xmlns:svg="http://www.w3.org/2000/svg"
   xmlns="http://www.w3.org/2000/svg"
   xmlns:sodipodi="http://sodipodi.sourceforge.net/DTD/sodipodi-0.dtd"
   xmlns:inkscape="http://www.inkscape.org/namespaces/inkscape"
   version="1.1"
   width="100"
   height="100"
   viewBox="0 0 100.00 100.00"
   enable-background="new 0 0 100.00 100.00"
   xml:space="preserve"
   id="svg2"
   inkscape:version="0.48.4 r9939"
   sodipodi:docname="gif.svg"><metadata
   id="metadata10"><rdf:RDF><cc:Work
       rdf:about=""><dc:format>image/svg+xml</dc:format><dc:type
         rdf:resource="http://purl.org/dc/dcmitype/StillImage" /></cc:Work></rdf:RDF></metadata><defs
   id="defs8" /><sodipodi:namedview
   pagecolor="#ffffff"
   bordercolor="#666666"
   borderopacity="1"
   objecttolerance="10"
   gridtolerance="10"
   guidetolerance="10"
   inkscape:pageopacity="0"
   inkscape:pageshadow="2"
   inkscape:window-width="779"
   inkscape:window-height="480"
   id="namedview6"
   showgrid="false"
   inkscape:zoom="2.36"
   inkscape:cx="50"
   inkscape:cy="50"
   inkscape:window-x="0"
   inkscape:window-y="0"
   inkscape:window-maximized="0"
   inkscape:current-layer="svg2" />
	<path
   d="m 11.652542,2.1716309 47.360523,-1.07e-5 24.496822,24.9716798 0,42.187907 c 3.805774,1.371245 6.532486,5.071158 6.532486,9.420254 l 0,9.988676 c 0,5.516626 -4.387009,9.988676 -9.798729,9.988676 l -39.194916,-1.06e-4 c -5.411615,0 -9.798624,-4.47205 -9.798624,-9.98857 l -19.597562,0 0,-86.5685061 z m 65.324859,33.2955661 -26.129944,1.06e-4 0,-26.6364694 -32.662429,0 0,73.2501864 13.064972,0 0,-3.329559 c 0,-5.516626 4.387113,-9.988676 9.798728,-9.988676 l 35.928673,0 0,-33.295588 z m -19.597458,-24.971584 0,18.312573 17.964232,0 -17.964232,-18.312573 z m -3.266661,81.574296 0,-9.988676 -3.266243,0 -3.266243,0 0,3.329558 3.266243,0 0,3.329559 -6.532486,0 0,-9.988676 9.798729,0 0,-3.329559 -9.798729,0 0,3.329559 -3.266243,0 0,9.988676 3.266243,0 0,3.329559 9.798729,0 z m 16.331528,-16.6479 0,16.647687 3.266243,0 0,-6.659011 3.266243,0 0,-3.329559 -3.266243,0 0,-3.329559 6.532486,0 0,-3.329558 -9.798729,0 z m -3.266243,13.318235 -3.266138,-1.07e-4 0,-9.988676 3.266138,1.06e-4 0,-3.329558 -9.798728,0 0,3.329558 3.266243,0 0,9.988677 -3.266243,0 0,3.329452 9.798728,0 0,-3.329452 z"
   id="path4"
   inkscape:connector-curvature="0"
   style="fill:#009dd1;fill-opacity:1;stroke-width:0.20000000000000001;stroke-linejoin:round" />
</svg>